<svg width="430" height="171" viewBox="0 0 430 171" fill="none" xmlns="http://www.w3.org/2000/svg">
<path d="M172.239 0.916382L0 171H430V0.916382H172.239Z" fill="url(#paint0_linear_3_167)"/>
<path d="M285.271 64.3144H290.221V73.2394H292.001V62.7148H283.492V73.2393L283.492 73.2394H285.271V64.3144Z" fill="#F8F8F8"/>
<path d="M307.262 64.165C309.206 64.165 310.387 65.7497 310.387 67.9771C310.387 70.2047 309.206 71.7893 307.262 71.7893C305.318 71.7893 304.151 70.2047 304.151 67.9771C304.151 65.7497 305.318 64.165 307.262 64.165ZM307.262 73.4188C310.223 73.4188 312.197 71.1615 312.197 67.9771C312.197 64.7929 310.223 62.5355 307.262 62.5355C304.301 62.5355 302.327 64.7929 302.327 67.9771C302.327 71.1614 304.301 73.4188 307.262 73.4188Z" fill="#F8F8F8"/>
<path d="M289.055 100.72L285.69 92.5726H283.492V103.097H285.196V95.4729L288.322 103.052H289.757L292.883 95.4729V103.097H294.573V92.5726H292.404L289.055 100.72Z" fill="#F8F8F8"/>
<path d="M323.9 68.3957L328.133 73.2394H330.376L325.68 67.7529L330.286 62.7148H328.118L323.9 67.2596V62.7148H322.121V73.2394H323.9V68.3957Z" fill="#F8F8F8"/>
<path d="M320.54 71.6398H315.455V68.6349H320.256V67.0802H315.455V64.3144H320.54V62.7148H313.676V73.2394H320.54V71.6398Z" fill="#F8F8F8"/>
<path d="M308.529 79.2135H310.398C311.699 79.2135 312.402 79.976 312.402 81.0823C312.402 82.1885 311.669 82.9807 310.398 82.9807H308.529V79.2135ZM308.529 84.5357H310.623C312.851 84.5357 314.212 82.9807 314.212 81.0823C314.212 79.1687 312.911 77.6439 310.578 77.6439H306.749V88.1683H308.529V84.5357Z" fill="#F8F8F8"/>
<path d="M338.983 62.7148H330.578V64.3144H333.898V73.2394H335.678V64.3144H338.983V62.7148Z" fill="#F8F8F8"/>
<path d="M330.758 101.572H328.53V98.4329H330.818C331.94 98.4329 332.658 99.0311 332.658 100.003C332.658 101.004 331.895 101.572 330.758 101.572ZM328.53 94.0976H330.564C331.641 94.0976 332.269 94.6358 332.269 95.5327C332.269 96.34 331.745 96.968 330.639 96.968H328.53V94.0976ZM332.688 97.5958C333.361 97.3118 334.063 96.5643 334.063 95.3086C334.063 93.7837 332.957 92.5728 330.818 92.5728H326.751V103.097H330.953C333.121 103.097 334.467 101.856 334.467 100.107C334.467 98.5824 333.465 97.8201 332.688 97.5958Z" fill="#F8F8F8"/>
<path d="M325.74 92.5727H323.572L319.354 97.1174V92.5727H317.575V103.097H319.354V98.2535L323.587 103.097H325.83L321.134 97.6106L325.74 92.5727Z" fill="#F8F8F8"/>
<path d="M344.376 103.097H346.156V92.5728H344.376V103.097Z" fill="#F8F8F8"/>
<path d="M289.055 85.7914L285.69 77.6438H283.492V88.1683H285.196V80.544L288.322 88.1235H289.757L292.883 80.544V88.1683H294.573V77.6438H292.404L289.055 85.7914Z" fill="#F8F8F8"/>
<path d="M317.221 84.132L318.746 79.7666L320.286 84.132H317.221ZM321.737 88.1683H323.606L319.688 77.6438H317.834L313.931 88.1683H315.8L316.682 85.6717H320.84L321.737 88.1683Z" fill="#F8F8F8"/>
<path d="M339.501 101.528H337.647V97.8648H339.501C340.772 97.8648 341.49 98.5824 341.49 99.6886C341.49 100.78 340.742 101.528 339.501 101.528ZM339.68 96.2951H337.647V92.5727H335.867V103.097H339.725C341.924 103.097 343.299 101.587 343.299 99.6886C343.299 97.775 341.984 96.2951 339.68 96.2951Z" fill="#F8F8F8"/>
<path d="M295.761 68.0519V64.2845H297.63C298.931 64.2845 299.634 65.047 299.634 66.1533C299.634 67.2596 298.902 68.0519 297.63 68.0519H295.761ZM301.444 66.1533C301.444 64.2397 300.143 62.7148 297.81 62.7148H293.981V73.2394H295.761V69.6067H297.855C300.083 69.6067 301.444 68.0519 301.444 66.1533Z" fill="#F8F8F8"/>
<path d="M311.728 101.647C309.889 101.647 308.722 100.062 308.722 97.835C308.722 95.5626 309.919 94.0228 311.728 94.0228C313.268 94.0228 314.076 94.9348 314.375 96.0112H316.155C315.856 94.0377 314.36 92.3934 311.728 92.3934C308.872 92.3934 306.898 94.6358 306.898 97.835C306.898 101.109 308.932 103.277 311.728 103.277C314.629 103.277 316.005 101.273 316.185 99.6439H314.39C314.226 100.526 313.373 101.647 311.728 101.647Z" fill="#F8F8F8"/>
<path d="M300.454 86.7332C298.779 86.7332 298.001 85.6419 297.777 84.8794H295.997C296.237 86.3595 297.538 88.3477 300.439 88.3477C303.191 88.3477 305.284 86.3146 305.284 82.9061C305.284 79.5425 303.28 77.4645 300.454 77.4645C297.867 77.4645 296.356 79.1239 296.027 80.9328H297.792C298.091 79.976 298.929 79.079 300.454 79.079C302.024 79.079 303.176 80.1404 303.415 82.0391H299.243V83.5639H303.445C303.265 85.5372 302.114 86.7332 300.454 86.7332Z" fill="#F8F8F8"/>
<path d="M300.993 101.647C299.049 101.647 297.882 100.062 297.882 97.835C297.882 95.6075 299.049 94.0228 300.993 94.0228C302.937 94.0228 304.118 95.6075 304.118 97.835C304.118 100.062 302.937 101.647 300.993 101.647ZM300.993 92.3934C298.032 92.3934 296.058 94.6507 296.058 97.835C296.058 101.019 298.032 103.277 300.993 103.277C303.954 103.277 305.927 101.019 305.927 97.835C305.927 94.6507 303.954 92.3934 300.993 92.3934Z" fill="#F8F8F8"/>
<path d="M227.166 91.5857C227.762 90.8888 228.577 89.9345 229.32 86.8956C229.707 85.3108 230.69 83.4217 233.171 83.4217C234.276 83.4217 234.974 83.8601 235.361 84.2179C235.152 84.4304 234.942 84.669 234.727 84.9461C234.58 85.1376 234.448 85.3289 234.328 85.5199C232.766 85.6459 231.053 86.5773 230.264 89.7042C229.67 92.0687 228.661 92.4331 227.593 92.8189C227.342 92.9098 227.082 93.0037 226.831 93.1227C226.653 93.2069 226.489 93.3087 226.339 93.4231C226.387 93.0465 226.499 92.6689 226.687 92.2574C226.797 92.0182 226.952 91.8368 227.166 91.5857ZM239.158 84.0017L239.267 83.9788C240.526 83.7078 241.768 84.1703 241.778 84.1741L241.78 84.1695C242.419 84.6094 243.13 84.9488 243.881 85.1551L244.287 83.6786C242.669 83.2343 241.286 82.0148 240.678 80.496L240.454 79.9347L239.856 80.023C239.676 80.0495 239.498 80.0796 239.318 80.11C238.382 80.2689 237.497 80.4189 236.217 80.0124C235.881 79.906 235.57 79.7587 235.24 79.6027C234.46 79.2336 233.597 78.8255 232.166 78.7791C233.733 75.1405 236.356 72.1376 236.385 72.1049L236.719 71.7258L236.502 71.2701C236.502 71.2701 234.962 68.0327 234.533 67.1382C234.484 67.0339 234.574 66.7113 234.749 66.3615L252.957 91.208C252.306 91.5021 251.049 91.969 249.008 92.3502C246.091 92.8973 241.337 92.4259 241.289 92.4212L240.805 92.3731L240.555 92.7899C240.543 92.8099 239.329 94.8106 237.589 95.7656C235.759 96.7698 234.865 96.9931 232.907 97.4826C232.775 97.5156 232.637 97.5503 232.495 97.5858C232.572 97.3129 232.635 97.0853 232.681 96.9229C234.043 96.0135 234.848 94.9315 235.073 93.7026C235.22 92.8964 235.112 92.0427 234.999 91.1388C234.785 89.4354 234.563 87.6739 235.939 85.8813C237.054 84.4445 237.891 84.2684 239.158 84.0017ZM242.802 68.6726L243.664 68.8244L243.7 67.9501C243.701 67.9363 243.758 66.5712 243.887 65.5379C244.073 63.9387 245.408 63.3279 246.108 63.0528C246.653 63.4486 247.838 64.5169 247.595 66.1642L247.55 66.4891C247.48 66.9864 247.421 67.4158 247.217 68.5272L247.092 69.2132L249.781 69.9693C248.465 72.299 248.475 75.214 248.612 77.2707C248.752 79.2784 249.363 81.1164 249.389 81.1937L250.841 80.7067C250.835 80.6895 250.266 78.971 250.14 77.1668C250.007 75.1699 249.992 72.2823 251.391 70.275C252.753 68.3532 254.603 68.2281 255.919 68.4623C256.404 68.5466 257.271 68.909 257.85 69.171V69.9529L261.226 73.4094C261.406 73.5954 261.504 73.8425 261.5 74.1051C261.495 74.3685 261.39 74.6138 261.207 74.7915L261.125 74.8696C260.347 74.5594 259.177 74.1287 258.639 74.1113L258.523 74.1076L258.411 74.1382C256.93 74.5453 256.15 73.8038 256.126 73.7807L255.374 72.9958L254.887 73.9673C254.717 74.3085 254.703 74.4935 255.546 76.1097C255.778 76.5533 256.373 77.6643 256.909 78.4034C257.107 78.6703 257.333 78.9496 257.572 79.2453C258.715 80.6571 260.137 82.4141 259.795 84.4393C259.575 85.7074 259.016 86.4476 258.245 87.1691L257.402 87.9585L258.458 88.4277C258.716 88.5423 259.133 88.641 259.651 88.6909C259.126 88.9972 258.52 89.3507 257.817 89.7606C257.305 90.0502 255.023 90.9784 253.921 89.9316L238.931 69.4779C240.695 68.3345 242.782 68.6692 242.802 68.6726ZM258.186 96.6069L258.268 96.3964C258.306 96.2973 258.644 95.4061 258.594 94.6594C258.571 94.308 258.763 93.9759 259.071 93.8124C259.869 96.5217 260.921 97.504 262.686 98.3938C262.495 98.5951 262.32 98.7879 262.229 98.9124L262.053 99.1526L262.086 99.4486C262.297 101.377 261.843 103.028 260.771 104.223C260.145 104.921 259.308 105.458 258.336 105.808L256.972 106.159C256.571 106.225 256.156 106.262 255.73 106.27L255.724 106.255H254.997C252.705 106.255 251.531 105.645 250.288 104.998C249.764 104.726 249.222 104.444 248.594 104.202C247.923 103.94 246.675 103.452 245.473 104.353C244.444 105.097 244.231 106.481 244.931 107.88C244.944 107.907 244.958 107.932 244.972 107.959H243.848L242.901 106.377C243.468 105.61 243.941 104.392 243.265 103.155C242.675 102.06 241.321 101.499 239.814 101.728C237.915 102.016 237.184 103.01 236.917 103.892C236.88 103.975 236.858 104.066 236.848 104.16C236.847 104.165 236.845 104.17 236.844 104.174L236.846 104.175C236.843 104.204 236.837 104.232 236.837 104.262C236.837 104.766 237.247 105.175 237.751 105.175C238.256 105.175 238.665 104.766 238.665 104.262C238.665 104.164 238.646 104.072 238.617 103.984C238.76 104.07 238.901 104.235 239.012 104.566C239.161 105.011 239.073 105.492 238.771 105.886C238.396 106.375 237.766 106.643 237.087 106.601C236.503 106.564 236.006 106.329 235.649 105.921C235.207 105.417 234.996 104.679 235.054 103.843C235.224 101.31 237.534 100.063 238.87 99.7249C242.388 98.8464 244.631 100.139 244.721 100.192L246.587 101.323L245.837 99.274C245.565 98.5325 245.099 97.6002 244.712 96.8717C246.773 96.9081 248.797 96.8801 250.349 96.8587C251.127 96.8479 251.798 96.8385 252.336 96.8385C252.677 96.8385 252.942 96.995 253.083 97.2791C253.251 97.6163 253.254 98.21 252.757 98.8673C252.301 99.4756 252.101 100.313 252.223 101.107C252.346 101.91 252.773 102.595 253.457 103.086C254.974 104.183 257.346 103.955 258.635 102.59C259.843 101.316 259.628 99.7333 258.879 98.7295C258.522 98.25 257.967 97.5561 257.562 97.0561L258.186 96.6069ZM257.356 107.959H256.413L256.338 107.774C256.658 107.75 256.971 107.712 257.279 107.659L257.356 107.959ZM225.519 96.6407L226.858 96.1945C226.595 95.4064 226.975 94.7487 227.487 94.5062C227.671 94.4188 227.886 94.3411 228.114 94.2589C229.313 93.8255 230.956 93.2319 231.75 90.0781C232.175 88.3925 232.841 87.6068 233.556 87.2662C233.153 88.7344 233.328 90.1288 233.479 91.3296C233.578 92.1135 233.671 92.8539 233.566 93.4276C233.406 94.2998 232.769 95.0714 231.618 95.7863L231.365 95.9433L231.285 96.2301C231.285 96.2301 230.15 100.278 229.562 102.353L229.505 102.554L229.558 102.756C229.623 103.003 229.687 103.235 229.749 103.459C230.056 104.57 230.299 105.448 230.299 106.963H231.83C231.83 105.24 231.55 104.226 231.226 103.052C231.182 102.895 231.138 102.734 231.093 102.567C231.355 101.641 231.705 100.397 232.017 99.2875C232.483 99.1671 232.901 99.0624 233.279 98.968C235.306 98.4614 236.323 98.2072 238.326 97.1077C239.922 96.2316 241.098 94.7156 241.601 93.9866C242.915 94.096 246.683 94.3437 249.29 93.8553C251.746 93.3966 253.19 92.8069 253.879 92.4654L256.448 95.9715L256.263 96.1054L255.371 96.7954L255.871 97.404C255.883 97.4185 257.067 98.8617 257.652 99.645C257.774 99.8091 258.343 100.672 257.523 101.538C256.773 102.331 255.233 102.481 254.353 101.844C254.004 101.593 253.797 101.267 253.737 100.875C253.678 100.491 253.774 100.064 253.98 99.7885C254.759 98.7585 254.937 97.5655 254.455 96.5971C254.053 95.7895 253.261 95.3074 252.336 95.3074C251.788 95.3074 251.111 95.3167 250.328 95.3276C248.35 95.355 245.889 95.3892 243.42 95.3078L242.037 95.2622L242.733 96.4579C242.74 96.4707 243.203 97.2686 243.664 98.1775C242.439 97.8742 240.662 97.6991 238.497 98.24C236.167 98.8287 233.726 100.758 233.526 103.739C233.439 104.983 233.784 106.116 234.497 106.93C235.128 107.651 235.99 108.066 236.991 108.129C237.069 108.134 237.146 108.137 237.223 108.137C238.325 108.137 239.345 107.653 239.987 106.818C240.604 106.013 240.778 105.015 240.464 104.079C240.355 103.755 240.213 103.476 240.039 103.243C240.041 103.242 240.042 103.242 240.044 103.242C241.087 103.084 241.704 103.487 241.918 103.886C242.407 104.778 241.469 105.701 241.432 105.737L240.986 106.159L242.98 109.49H248.87V107.959H246.861C246.706 107.807 246.477 107.547 246.301 107.195C246.167 106.928 245.777 106.023 246.381 105.585C246.792 105.277 247.163 105.287 248.04 105.63C248.591 105.842 249.072 106.092 249.581 106.357C250.88 107.032 252.221 107.73 254.69 107.783L255.381 109.49H261.526V107.959H258.937L258.763 107.281C260.012 106.847 261.096 106.155 261.912 105.245C263.217 103.789 263.812 101.848 263.639 99.6159C263.854 99.383 264.209 99.0222 264.512 98.7253L265.283 97.9704L263.475 97.0763C261.95 96.3227 261.206 95.6416 260.544 93.3913L260.118 91.7993L258.67 92.32C257.817 92.6267 257.217 93.3843 257.088 94.2541L255.4 91.95C256.709 91.9386 257.985 91.425 258.58 91.0882C261.096 89.6211 262.398 88.8613 263.037 88.4871C264.047 89.7208 265.793 91.9865 266.139 93.0371C266.296 93.5174 266.324 95.302 266.293 96.4158L267.825 96.4574C267.838 95.9655 267.89 93.4659 267.595 92.5606C267.028 90.8414 264.124 87.3907 263.794 87.0029L263.443 86.5889L263.395 86.495C262.302 87.0513 261.132 87.2101 260.271 87.2006C260.706 86.6007 261.076 85.8488 261.272 84.8581L264.98 82.85C265.861 83.8427 267.342 85.6258 267.677 86.5491C267.86 87.0633 267.986 88.9587 268.017 90.1403L269.548 90.1007C269.534 89.5851 269.451 86.9652 269.119 86.0309C268.546 84.4571 265.995 81.681 265.706 81.3696L265.302 80.9346L261.329 83.0857C261.062 81.125 259.766 79.5218 258.763 78.2822C258.534 77.9996 258.318 77.7326 258.144 77.4987C257.817 77.0465 257.431 76.3848 257.098 75.7671C257.553 75.8177 258.079 75.7976 258.671 75.6525C259.06 75.7236 260.141 76.1142 261.001 76.4725L261.464 76.6651L262.27 75.8937C263.265 74.9274 263.289 73.3341 262.323 72.3409L259.381 69.3294V68.2061L258.952 67.9963C258.769 67.9072 257.141 67.1207 256.184 66.9543C254.898 66.7251 252.597 66.6851 250.746 68.6502L248.847 68.1161C248.962 67.4513 249.012 67.0964 249.067 66.7001L249.111 66.3841C249.435 64.1872 248.13 62.6546 247.16 61.9136C247.45 61.1963 247.56 60.1682 246.731 59.3577C246.048 58.675 245.194 58.5192 243.959 58.8543C243.225 59.0543 242.596 59.5341 241.93 60.0423C241.661 60.2468 241.384 60.4584 241.086 60.6641C239.555 61.7096 238.268 60.7269 237.638 60.0481L236.515 61.0899C237.481 62.13 238.594 62.661 239.715 62.661C240.472 62.661 241.233 62.4183 241.954 61.9261C242.284 61.6976 242.576 61.4749 242.859 61.2596C243.426 60.8267 243.916 60.4529 244.361 60.3317C245.288 60.0804 245.505 60.297 245.654 60.4461C246.083 60.8664 245.65 61.531 245.603 61.6004L245.608 61.6043C244.785 61.923 242.661 62.825 242.367 65.3545C242.294 65.932 242.244 66.5913 242.213 67.0928C241.228 67.0706 239.551 67.2189 238.025 68.241L232.295 60.4227L231.06 61.3276L233.768 65.0236C233.481 65.43 232.648 66.7521 233.152 67.8006C233.482 68.4886 234.47 70.5638 234.907 71.482C234.022 72.5586 231.593 75.709 230.305 79.326L229.902 80.4568L231.098 80.345C232.876 80.179 233.706 80.5713 234.585 80.9868C234.946 81.1575 235.32 81.3341 235.753 81.4718C237.356 81.9803 238.504 81.8007 239.515 81.6297C239.647 81.8842 239.798 82.1293 239.962 82.3658C239.636 82.3733 239.295 82.4066 238.948 82.4812L238.842 82.5035C238.075 82.6649 237.332 82.8213 236.569 83.2616C235.995 82.6679 234.911 81.8905 233.171 81.8905C230.499 81.8905 228.554 83.5822 227.832 86.5321C227.176 89.2172 226.525 89.979 226.002 90.5912C225.752 90.8839 225.493 91.1865 225.294 91.6207C224.495 93.3701 224.709 94.7513 225.383 96.6881L225.519 96.6407Z" fill="#F8F8F8"/>
<path d="M223.119 57.545H271.635V103.461C271.635 108.895 268.762 111.768 263.326 111.768H256.089C252.826 111.768 249.695 113.056 247.377 115.329C245.059 113.056 241.929 111.768 238.666 111.768H231.429C226.148 111.768 223.119 108.74 223.119 103.461V57.545ZM221.588 103.461C221.588 109.621 225.267 113.299 231.429 113.299H238.666C241.769 113.299 244.736 114.628 246.806 116.947L247.377 117.587L247.949 116.947C250.018 114.628 252.985 113.299 256.089 113.299H263.326C269.672 113.299 273.167 109.805 273.167 103.461V56.0138H221.588V103.461Z" fill="#F8F8F8"/>
<defs>
<linearGradient id="paint0_linear_3_167" x1="49.0403" y1="125.604" x2="430" y2="123.831" gradientUnits="userSpaceOnUse">
<stop stop-color="#7541E0"/>
<stop offset="1" stop-color="#02C8F0"/>
</linearGradient>
</defs>
</svg>
