<svg width="487" height="171" viewBox="0 0 487 171" fill="none" xmlns="http://www.w3.org/2000/svg">
<path d="M0.880127 170.068V0H398.696L487 84.7785L398.696 170.068H0.880127Z" fill="#FFFEFC"/>
<g clip-path="url(#clip0_2005_4)">
<path d="M169.491 99.2995L170.433 99.3199C171.341 99.3199 172.457 99.4827 173.627 99.8355C175.234 100.324 177.089 100.921 177.587 101.152C180.176 102.339 181.729 103.126 183.739 104.246C187.202 106.173 190.221 107.998 191.72 109.009C191.72 109.009 193.112 109.952 196.689 111.953C197.207 112.245 198.162 112.768 199.507 113.161C200.609 113.48 201.484 113.568 201.947 113.595C202.694 113.643 203.306 113.684 204.099 113.5C204.845 113.324 205.383 113.039 206.157 112.632C206.768 112.306 207.259 111.994 207.589 111.763L208.08 111.458L227.76 96.3685L227.001 111.065L208.886 124.485L208.221 124.947C207.649 125.326 207.273 125.564 206.399 126.059C205.404 126.629 204.543 126.826 203.877 126.975C202.741 127.226 201.699 127.281 200.515 127.233C199.433 127.192 196.938 127.097 194.114 126.127C190.739 124.967 181.487 118.596 176.404 115.366C173.606 113.589 171.414 112.042 170.07 111.065L169.485 110.671V99.2995H169.491ZM252.47 81.1974L249.095 90.6216H253.304L252.47 81.1974ZM212.988 80.0032C214.03 79.8133 216.72 79.318 218.354 77.1129C218.75 76.5836 219.087 75.7966 218.945 74.7789C218.838 73.9918 218.596 73.2658 216.78 72.0649C215.617 71.2914 213.855 70.4704 211.657 69.3781L210.487 68.7674L207.898 67.4783L196.696 74.2089L201.497 76.699L202.237 77.1264C202.801 77.4453 202.936 77.4996 203.837 77.9746C205.047 78.6123 206.204 79.2162 207.347 79.6029C210.07 80.5189 212.524 80.0982 212.995 80.01L212.988 80.0032ZM206.816 110.115C205.854 110.868 203.931 112.123 201.611 111.919C200.26 111.797 198.982 111.2 197.92 110.705C196.689 110.128 195.835 109.558 195.6 109.402C187.014 103.71 180.055 100.562 180.055 100.562C175.577 98.5328 173.069 98.0511 171.125 97.8747C169.081 97.6915 167.373 97.8204 166.23 97.9629H165.35C165.309 97.1894 165.43 95.8392 164.865 94.4483C164.455 93.4374 163.823 92.5485 162.257 91.1305C160.307 89.3732 158.511 88.2401 157.14 87.4259C153.872 85.4922 150.584 83.9114 149.992 83.6264C149.992 83.6264 148.103 82.724 144.97 80.6071C143.773 79.7997 143.154 79.3112 143.04 78.5581C142.784 76.9229 143.934 76.3326 144.243 76.1426C145.037 75.532 145.877 74.9892 146.751 74.5075L196.091 47.5714L253.304 74.6364L206.816 110.121V110.115ZM207.764 83.2668C209.364 83.511 211.778 83.8503 214.817 83.2668C216.592 82.9208 217.849 82.4051 218.851 81.9912C221.023 81.0956 222.395 80.5121 223.497 79.0737C223.847 78.6191 224.533 77.7032 224.721 76.319C224.903 74.9688 224.513 73.9036 224.311 73.4422C223.941 72.5941 223.807 72.3974 222.906 71.4678C222.011 70.5519 220.573 69.6291 220.404 69.5205C219.497 68.971 219.013 68.7064 218.649 68.5028C217.621 67.9397 213.566 65.9992 213.566 65.9992L206.634 62.3692L191.835 71.7867L189.098 70.0362L184.896 72.4584L187.632 74.2768L184.896 75.9594L181.574 74.1886L177.426 76.699L180.424 78.3477L173.492 82.7511L178.36 85.309L185.36 81.1974L196.293 87.1885L200.892 84.0945L189.824 78.3749L192.689 76.6922L196.689 78.9787C196.804 79.0398 198.686 80.0507 198.794 80.1186C199.318 80.4375 200.219 80.8853 201.443 81.4145C204.509 82.7443 207.037 83.1582 207.764 83.2668Z" fill="url(#paint0_linear_2005_4)"/>
<path d="M275.574 74.9349C274.686 74.5753 274.007 74.0461 273.543 73.3473C273.079 72.6484 272.844 71.8003 272.844 70.8029V70.4772C272.844 69.4799 273.079 68.6317 273.543 67.9329C274.007 67.2341 274.686 66.7048 275.574 66.3452C276.461 65.9856 277.537 65.8092 278.794 65.8092C280.052 65.8092 281.121 65.9856 282.008 66.3452C282.896 66.7048 283.575 67.2341 284.039 67.9329C284.503 68.6317 284.738 69.4799 284.738 70.4772V70.8029C284.738 71.8003 284.503 72.6484 284.039 73.3473C283.575 74.0461 282.896 74.5753 282.008 74.9349C281.121 75.2945 280.052 75.4709 278.794 75.4709C277.537 75.4709 276.468 75.2945 275.574 74.9349ZM281.686 72.8248C282.365 72.3635 282.701 71.685 282.701 70.8029V70.4772C282.701 69.5952 282.365 68.9167 281.686 68.4553C281.006 67.994 280.045 67.7565 278.794 67.7565C277.544 67.7565 276.575 67.9872 275.903 68.4553C275.224 68.9167 274.888 69.5952 274.888 70.4772V70.8029C274.888 71.685 275.224 72.3635 275.903 72.8248C276.582 73.2862 277.544 73.5237 278.794 73.5237C280.045 73.5237 281.006 73.293 281.686 72.8248ZM277.658 64.554H279.937V76.7329H277.658V64.554Z" fill="#000205"/>
<path d="M293.257 76.7194V67.3019L293.452 67.5123L289.048 76.7194H286.426V64.9543H288.53V74.5075L288.335 74.2972L292.753 64.9543H295.362V76.7194H293.257Z" fill="#000205"/>
<path d="M297.93 64.9543H300.129V76.7262H297.93V64.9543ZM298.946 69.8259H305.744V71.9632H298.946V69.8259ZM304.318 64.9543H306.517V76.7262H304.318V64.9543Z" fill="#000205"/>
<path d="M312.259 64.9543H313.657L318.115 76.7262H315.749L312.958 68.686L310.168 76.7262H307.801L312.266 64.9543H312.259ZM309.939 72.7027H316.078V74.84H309.939V72.7027Z" fill="#000205"/>
<path d="M319.561 64.9543H321.76V76.7262H319.561V64.9543ZM320.576 69.8259H327.374V71.9632H320.576V69.8259ZM325.949 64.9543H328.147V76.7262H325.949V64.9543Z" fill="#000205"/>
<path d="M332.41 76.3326C331.778 75.9934 331.301 75.4913 330.965 74.8332C330.635 74.175 330.467 73.388 330.467 72.4584V69.2288C330.467 68.2993 330.635 67.5055 330.965 66.8541C331.294 66.196 331.778 65.7007 332.41 65.3546C333.042 65.0086 333.802 64.839 334.69 64.839C335.423 64.839 336.075 65.0018 336.653 65.3139C337.231 65.6328 337.709 66.0942 338.085 66.7048C338.462 67.3155 338.724 68.0415 338.865 68.9032H336.586C336.498 68.5164 336.371 68.184 336.189 67.9058C336.007 67.6276 335.792 67.4173 335.537 67.2748C335.281 67.1323 334.999 67.0577 334.683 67.0577C334.273 67.0577 333.923 67.1459 333.634 67.3155C333.345 67.4851 333.123 67.7361 332.975 68.0618C332.82 68.3875 332.746 68.781 332.746 69.2424V72.472C332.746 72.9334 332.82 73.3201 332.975 73.6458C333.13 73.9715 333.345 74.2157 333.634 74.3854C333.923 74.555 334.273 74.6432 334.683 74.6432C335.006 74.6432 335.295 74.5686 335.55 74.4261C335.806 74.2836 336.021 74.0733 336.202 73.8019C336.377 73.5237 336.505 73.1912 336.586 72.7977H338.865C338.717 73.6594 338.455 74.3854 338.072 74.996C337.695 75.5999 337.218 76.068 336.646 76.3869C336.068 76.7058 335.416 76.8619 334.683 76.8619C333.795 76.8619 333.036 76.6922 332.404 76.3462L332.41 76.3326Z" fill="#000205"/>
<path d="M342.341 76.3123C341.696 75.9527 341.198 75.4438 340.842 74.7925C340.492 74.1343 340.311 73.3744 340.311 72.5127V69.1745C340.311 68.3129 340.486 67.553 340.842 66.8948C341.198 66.2367 341.696 65.7346 342.341 65.375C342.987 65.0154 343.733 64.839 344.574 64.839C345.414 64.839 346.161 65.0154 346.806 65.375C347.451 65.7346 347.949 66.2435 348.305 66.8948C348.662 67.553 348.837 68.3129 348.837 69.1745V72.5127C348.837 73.3744 348.662 74.1343 348.305 74.7925C347.956 75.4506 347.451 75.9527 346.806 76.3123C346.161 76.6719 345.414 76.8483 344.574 76.8483C343.733 76.8483 342.987 76.6719 342.341 76.3123ZM345.616 74.3786C345.918 74.209 346.147 73.9647 346.308 73.6526C346.47 73.3405 346.551 72.9809 346.551 72.567V69.1203C346.551 68.7132 346.47 68.3468 346.308 68.0347C346.147 67.7226 345.912 67.4783 345.616 67.3087C345.313 67.1391 344.97 67.0509 344.574 67.0509C344.177 67.0509 343.827 67.1391 343.531 67.3087C343.229 67.4783 343 67.7226 342.839 68.0347C342.678 68.3468 342.597 68.7064 342.597 69.1203V72.567C342.597 72.9741 342.678 73.3405 342.839 73.6526C343 73.9647 343.236 74.209 343.531 74.3786C343.834 74.5482 344.177 74.6364 344.574 74.6364C344.97 74.6364 345.32 74.5482 345.616 74.3786Z" fill="#000205"/>
<path d="M351.002 64.9543H353.2V76.7262H351.002V64.9543ZM351.963 74.5889H355.688C356.193 74.5889 356.582 74.4668 356.858 74.2225C357.134 73.9783 357.268 73.6322 357.268 73.1912V73.1641C357.268 72.8656 357.208 72.6145 357.087 72.4042C356.966 72.1938 356.784 72.031 356.542 71.9225C356.307 71.8139 356.018 71.7596 355.688 71.7596H351.963V69.6224H355.688C356.145 69.6224 356.495 69.507 356.744 69.2763C356.993 69.0456 357.114 68.72 357.114 68.2993C357.114 67.9194 356.993 67.6276 356.744 67.4173C356.495 67.2069 356.145 67.0984 355.688 67.0984H351.963V64.9611H355.755C356.509 64.9611 357.154 65.0833 357.692 65.3343C358.23 65.5853 358.633 65.9517 358.909 66.4267C359.185 66.9016 359.326 67.4783 359.326 68.15C359.326 68.6114 359.238 69.0117 359.057 69.3713C358.875 69.7241 358.62 70.0159 358.277 70.2398C357.934 70.4637 357.524 70.6197 357.04 70.7012C357.551 70.769 357.995 70.9319 358.358 71.1761C358.727 71.4204 359.003 71.7393 359.191 72.1328C359.38 72.5263 359.474 72.9809 359.474 73.5033V73.5305C359.474 74.2022 359.333 74.7857 359.05 75.2606C358.768 75.7424 358.358 76.1087 357.826 76.3598C357.288 76.6108 356.643 76.733 355.89 76.733H351.956V74.5957L351.963 74.5889Z" fill="#000205"/>
<path d="M364.705 64.9543H366.104L370.561 76.7262H368.195L365.404 68.686L362.614 76.7262H360.247L364.712 64.9543H364.705ZM362.385 72.7027H368.524V74.84H362.385V72.7027Z" fill="#000205"/>
<path d="M374.468 71.7392L376.66 72.1124L373.829 76.7261H371.328L374.475 71.7392H374.468ZM373.029 71.7799C372.518 71.4746 372.121 71.054 371.839 70.4976C371.556 69.948 371.415 69.3102 371.415 68.5842C371.415 67.8583 371.556 67.2205 371.839 66.6709C372.121 66.1213 372.518 65.6939 373.029 65.3885C373.54 65.0832 374.132 64.934 374.804 64.934H378.637V67.0712H375.06C374.791 67.0712 374.555 67.1323 374.354 67.2544C374.152 67.3765 373.991 67.5529 373.883 67.7836C373.775 68.0143 373.722 68.2789 373.722 68.5707C373.722 68.8624 373.775 69.127 373.89 69.3577C374.004 69.5884 374.159 69.7648 374.36 69.8869C374.562 70.0091 374.797 70.0769 375.06 70.0769H378.637V72.2142H374.804C374.138 72.2142 373.547 72.0649 373.036 71.7596L373.029 71.7799ZM377.467 64.9475H379.665V76.7261H377.467V64.9475Z" fill="#000205"/>
<path d="M273.57 81.5367H275.769V93.3085H273.57V81.5367ZM274.363 81.5367H280.428V83.6739H274.363V81.5367Z" fill="#000205"/>
<path d="M282.035 81.5367H284.234V93.3085H282.035V81.5367ZM283.037 86.605H286.769C287.031 86.605 287.26 86.5439 287.461 86.4218C287.663 86.2997 287.818 86.13 287.932 85.9061C288.046 85.6822 288.1 85.4312 288.1 85.1462C288.1 84.8613 288.046 84.5966 287.939 84.3727C287.831 84.1488 287.677 83.9724 287.475 83.8571C287.273 83.735 287.038 83.6739 286.776 83.6739H283.044V81.5367H286.722C287.448 81.5367 288.087 81.6859 288.645 81.9845C289.196 82.283 289.626 82.7037 289.936 83.2532C290.238 83.796 290.393 84.427 290.393 85.1462C290.393 85.8654 290.238 86.4964 289.936 87.0392C289.633 87.582 289.203 88.0027 288.645 88.3012C288.093 88.5997 287.448 88.749 286.722 88.749H283.044V86.6118L283.037 86.605Z" fill="#000205"/>
<path d="M294.958 81.5367H296.357L300.815 93.3085H298.448L295.658 85.2684L292.867 93.3085H290.501L294.965 81.5367H294.958ZM292.639 89.285H298.778V91.4223H292.639V89.285Z" fill="#000205"/>
<path d="M309.603 81.5367H312.501V93.3085H310.504V84.1692L310.585 84.6849L308.352 91.9922H306.409L304.177 84.8409L304.258 84.1624V93.3017H302.261V81.5299H305.159L307.377 89.4614L309.603 81.5299V81.5367Z" fill="#000205"/>
<path d="M316.851 92.8946C316.206 92.535 315.708 92.0261 315.352 91.3748C315.002 90.7167 314.821 89.9567 314.821 89.0951V85.7569C314.821 84.8952 314.995 84.1353 315.352 83.4772C315.708 82.819 316.206 82.3169 316.851 81.9573C317.497 81.5977 318.243 81.4213 319.084 81.4213C319.924 81.4213 320.67 81.5977 321.316 81.9573C321.961 82.3169 322.459 82.8258 322.815 83.4772C323.172 84.1353 323.347 84.8952 323.347 85.7569V89.0951C323.347 89.9567 323.172 90.7167 322.815 91.3748C322.466 92.0329 321.961 92.535 321.316 92.8946C320.67 93.2542 319.924 93.4306 319.084 93.4306C318.243 93.4306 317.497 93.2542 316.851 92.8946ZM320.126 90.9541C320.428 90.7845 320.657 90.5402 320.818 90.2281C320.98 89.916 321.06 89.5564 321.06 89.1426V85.6958C321.06 85.2887 320.98 84.9223 320.818 84.6102C320.657 84.2981 320.422 84.0539 320.126 83.8843C319.823 83.7146 319.48 83.6264 319.084 83.6264C318.687 83.6264 318.337 83.7146 318.041 83.8843C317.739 84.0539 317.51 84.2981 317.349 84.6102C317.187 84.9223 317.107 85.2819 317.107 85.6958V89.1426C317.107 89.5497 317.187 89.916 317.349 90.2281C317.51 90.5402 317.746 90.7845 318.041 90.9541C318.344 91.1238 318.687 91.212 319.084 91.212C319.48 91.212 319.83 91.1238 320.126 90.9541Z" fill="#000205"/>
<path d="M324.066 81.5367H332.619V83.6739H324.066V81.5367ZM327.246 82.5001H329.445V93.3085H327.246V82.5001Z" fill="#000205"/>
<path d="M333.903 81.5367H336.102V93.3085H333.903V81.5367ZM334.925 86.4014H341.723V88.5387H334.925V86.4014ZM340.291 81.5367H342.489V93.3085H340.291V81.5367Z" fill="#000205"/>
<path d="M346.84 92.8946C346.194 92.535 345.697 92.0261 345.34 91.3748C344.991 90.7167 344.809 89.9567 344.809 89.0951V85.7569C344.809 84.8952 344.984 84.1353 345.34 83.4772C345.697 82.819 346.194 82.3169 346.84 81.9573C347.485 81.5977 348.232 81.4213 349.072 81.4213C349.912 81.4213 350.659 81.5977 351.304 81.9573C351.95 82.3169 352.447 82.8258 352.804 83.4772C353.16 84.1353 353.335 84.8952 353.335 85.7569V89.0951C353.335 89.9567 353.16 90.7167 352.804 91.3748C352.454 92.0329 351.95 92.535 351.304 92.8946C350.659 93.2542 349.912 93.4306 349.072 93.4306C348.232 93.4306 347.485 93.2542 346.84 92.8946ZM350.121 90.9541C350.423 90.7845 350.652 90.5402 350.813 90.2281C350.975 89.916 351.056 89.5564 351.056 89.1426V85.6958C351.056 85.2887 350.975 84.9223 350.813 84.6102C350.652 84.2981 350.417 84.0539 350.121 83.8843C349.818 83.7146 349.475 83.6264 349.079 83.6264C348.682 83.6264 348.332 83.7146 348.037 83.8843C347.734 84.0539 347.505 84.2981 347.344 84.6102C347.183 84.9223 347.102 85.2819 347.102 85.6958V89.1426C347.102 89.5497 347.183 89.916 347.344 90.2281C347.505 90.5402 347.741 90.7845 348.037 90.9541C348.339 91.1238 348.682 91.212 349.079 91.212C349.475 91.212 349.825 91.1238 350.121 90.9541Z" fill="#000205"/>
<path d="M357.04 92.915C356.408 92.5757 355.93 92.0736 355.594 91.4155C355.265 90.7574 355.097 89.9703 355.097 89.0408V85.8112C355.097 84.8816 355.265 84.0878 355.594 83.4364C355.924 82.7783 356.408 82.283 357.04 81.937C357.672 81.5909 358.432 81.4213 359.319 81.4213C360.052 81.4213 360.704 81.5842 361.283 81.8963C361.861 82.2152 362.338 82.6765 362.715 83.2872C363.091 83.8978 363.353 84.6238 363.495 85.4855H361.215C361.128 85.0988 361 84.7663 360.819 84.4881C360.637 84.2099 360.422 83.9996 360.166 83.8571C359.911 83.7146 359.628 83.64 359.312 83.64C358.902 83.64 358.553 83.7282 358.263 83.8978C357.974 84.0674 357.752 84.3185 357.605 84.6442C357.45 84.9698 357.376 85.3634 357.376 85.8247V89.0544C357.376 89.5157 357.45 89.9025 357.605 90.2281C357.759 90.5538 357.974 90.7981 358.263 90.9677C358.553 91.1373 358.902 91.2255 359.312 91.2255C359.635 91.2255 359.924 91.1509 360.18 91.0084C360.435 90.8659 360.65 90.6556 360.832 90.3842C361.007 90.106 361.135 89.7736 361.215 89.38H363.495C363.347 90.2417 363.084 90.9677 362.701 91.5783C362.325 92.1822 361.847 92.6504 361.276 92.9693C360.698 93.2881 360.045 93.4442 359.312 93.4442C358.425 93.4442 357.665 93.2746 357.033 92.9285L357.04 92.915Z" fill="#000205"/>
<path d="M363.905 81.5367H372.458V83.6739H363.905V81.5367ZM367.078 82.5001H369.277V93.3085H367.078V82.5001Z" fill="#000205"/>
<path d="M373.742 81.5367H375.941V93.3085H373.742V81.5367ZM374.744 91.1712H378.435C378.697 91.1712 378.926 91.1102 379.128 90.988C379.329 90.8659 379.484 90.6895 379.598 90.4588C379.713 90.2349 379.766 89.9703 379.766 89.6718C379.766 89.3732 379.713 89.1018 379.605 88.8711C379.497 88.6405 379.343 88.464 379.141 88.3419C378.939 88.2198 378.704 88.1519 378.442 88.1519H374.75V86.0147H378.388C379.114 86.0147 379.753 86.164 380.311 86.4693C380.862 86.7746 381.293 87.1953 381.602 87.7516C381.905 88.3012 382.059 88.939 382.059 89.6718C382.059 90.4045 381.905 91.0287 381.602 91.5851C381.299 92.1347 380.869 92.5621 380.311 92.8607C379.76 93.1592 379.114 93.3085 378.388 93.3085H374.75V91.1712H374.744Z" fill="#000205"/>
<path d="M273.214 101.138H274.262V108.703H273.214V101.138ZM273.731 101.138H277.423V102.149H273.731V101.138Z" fill="#000205"/>
<path d="M281.356 108.439C280.959 108.208 280.65 107.882 280.428 107.462C280.213 107.041 280.099 106.553 280.099 105.996V103.852C280.099 103.296 280.206 102.807 280.428 102.387C280.65 101.966 280.953 101.64 281.356 101.41C281.753 101.179 282.217 101.064 282.741 101.064C283.266 101.064 283.723 101.179 284.126 101.41C284.523 101.64 284.832 101.966 285.054 102.387C285.269 102.807 285.384 103.296 285.384 103.852V105.996C285.384 106.553 285.276 107.041 285.054 107.462C284.832 107.882 284.53 108.208 284.126 108.439C283.723 108.67 283.266 108.785 282.741 108.785C282.217 108.785 281.76 108.67 281.356 108.439ZM283.555 107.523C283.79 107.38 283.972 107.184 284.099 106.926C284.227 106.668 284.294 106.369 284.294 106.03V103.812C284.294 103.472 284.227 103.174 284.099 102.916C283.972 102.658 283.79 102.461 283.555 102.319C283.319 102.176 283.044 102.109 282.735 102.109C282.425 102.109 282.15 102.176 281.914 102.319C281.679 102.461 281.497 102.658 281.37 102.916C281.242 103.174 281.175 103.472 281.175 103.812V106.03C281.175 106.369 281.242 106.668 281.37 106.926C281.497 107.184 281.679 107.387 281.914 107.523C282.15 107.665 282.425 107.733 282.735 107.733C283.044 107.733 283.319 107.665 283.555 107.523Z" fill="#000205"/>
<path d="M288.779 101.138H289.828V108.703H288.779V101.138ZM289.317 104.761H291.718C291.946 104.761 292.141 104.707 292.316 104.599C292.491 104.49 292.619 104.341 292.719 104.137C292.814 103.94 292.861 103.71 292.861 103.459C292.861 103.208 292.814 102.97 292.719 102.773C292.625 102.577 292.491 102.421 292.316 102.312C292.141 102.204 291.946 102.149 291.718 102.149H289.317V101.138H291.677C292.121 101.138 292.518 101.233 292.861 101.43C293.204 101.62 293.466 101.891 293.654 102.244C293.842 102.597 293.936 103.004 293.936 103.466C293.936 103.927 293.842 104.334 293.654 104.68C293.466 105.026 293.204 105.297 292.861 105.487C292.518 105.677 292.128 105.772 291.677 105.772H289.317V104.761Z" fill="#000205"/>
<path d="M298.159 108.439C297.762 108.208 297.453 107.882 297.231 107.462C297.016 107.041 296.902 106.553 296.902 105.996V103.852C296.902 103.296 297.009 102.807 297.231 102.387C297.453 101.966 297.756 101.64 298.159 101.41C298.556 101.179 299.02 101.064 299.544 101.064C300.069 101.064 300.526 101.179 300.929 101.41C301.326 101.64 301.635 101.966 301.857 102.387C302.072 102.807 302.187 103.296 302.187 103.852V105.996C302.187 106.553 302.079 107.041 301.857 107.462C301.635 107.882 301.333 108.208 300.929 108.439C300.526 108.67 300.069 108.785 299.544 108.785C299.02 108.785 298.562 108.67 298.159 108.439ZM300.358 107.523C300.593 107.38 300.775 107.184 300.902 106.926C301.03 106.668 301.097 106.369 301.097 106.03V103.812C301.097 103.472 301.03 103.174 300.902 102.916C300.775 102.658 300.593 102.461 300.358 102.319C300.122 102.176 299.847 102.109 299.537 102.109C299.228 102.109 298.952 102.176 298.717 102.319C298.482 102.461 298.3 102.658 298.172 102.916C298.045 103.174 297.977 103.472 297.977 103.812V106.03C297.977 106.369 298.045 106.668 298.172 106.926C298.3 107.184 298.482 107.387 298.717 107.523C298.952 107.665 299.228 107.733 299.537 107.733C299.847 107.733 300.122 107.665 300.358 107.523Z" fill="#000205"/>
<path d="M304.856 107.693H311.358V108.703H304.856V107.693ZM304.856 107.693H305.905V110.271H304.856V107.693ZM304.863 107.693H304.91C305.347 107.693 305.676 107.516 305.918 107.163C306.154 106.81 306.275 106.308 306.275 105.671V101.138H307.324V105.766C307.324 106.322 307.229 106.797 307.048 107.184C306.866 107.577 306.604 107.876 306.255 108.079C305.912 108.283 305.495 108.391 305.004 108.391H304.856V107.693H304.863ZM306.934 101.138H310.336V102.149H306.934V101.138ZM309.771 101.138H310.827V108.703H309.771V101.138ZM310.78 107.693H311.829V110.271H310.78V107.693Z" fill="#000205"/>
<path d="M317.329 101.138H318.223L320.986 108.703H319.85L317.772 102.597L315.695 108.703H314.558L317.322 101.138H317.329ZM315.843 106.037H319.79V107.048H315.843V106.037Z" fill="#000205"/>
<path d="M333.963 101.138H334.952V108.703H333.923V103.038L333.977 103.371L332.128 107.652H331.395L329.546 103.472L329.6 103.038V108.703H328.571V101.138H329.553L331.758 106.132L333.963 101.138Z" fill="#000205"/>
<path d="M339.712 108.439C339.316 108.208 339.006 107.882 338.785 107.462C338.569 107.041 338.455 106.553 338.455 105.996V103.852C338.455 103.296 338.563 102.807 338.785 102.387C339.006 101.966 339.309 101.64 339.712 101.41C340.109 101.179 340.573 101.064 341.098 101.064C341.622 101.064 342.079 101.179 342.483 101.41C342.879 101.64 343.189 101.966 343.411 102.387C343.626 102.807 343.74 103.296 343.74 103.852V105.996C343.74 106.553 343.632 107.041 343.411 107.462C343.189 107.882 342.886 108.208 342.483 108.439C342.079 108.67 341.622 108.785 341.098 108.785C340.573 108.785 340.116 108.67 339.712 108.439ZM341.911 107.523C342.146 107.38 342.328 107.184 342.456 106.926C342.584 106.668 342.651 106.369 342.651 106.03V103.812C342.651 103.472 342.584 103.174 342.456 102.916C342.328 102.658 342.146 102.461 341.911 102.319C341.676 102.176 341.4 102.109 341.091 102.109C340.782 102.109 340.506 102.176 340.271 102.319C340.035 102.461 339.854 102.658 339.726 102.916C339.598 103.174 339.531 103.472 339.531 103.812V106.03C339.531 106.369 339.598 106.668 339.726 106.926C339.854 107.184 340.035 107.387 340.271 107.523C340.506 107.665 340.782 107.733 341.091 107.733C341.4 107.733 341.676 107.665 341.911 107.523Z" fill="#000205"/>
<path d="M348.117 108.432C347.72 108.201 347.418 107.869 347.203 107.441C346.988 107.014 346.88 106.519 346.88 105.956V103.879C346.88 103.316 346.988 102.821 347.203 102.393C347.418 101.966 347.727 101.634 348.117 101.403C348.514 101.165 348.964 101.05 349.489 101.05C349.919 101.05 350.316 101.145 350.672 101.328C351.035 101.511 351.338 101.776 351.58 102.115C351.822 102.455 351.983 102.848 352.071 103.296H350.995C350.928 103.058 350.82 102.848 350.666 102.665C350.511 102.482 350.329 102.339 350.128 102.237C349.919 102.136 349.711 102.088 349.489 102.088C349.18 102.088 348.917 102.163 348.682 102.312C348.447 102.461 348.272 102.672 348.144 102.936C348.016 103.208 347.956 103.52 347.956 103.879V105.956C347.956 106.308 348.016 106.62 348.144 106.892C348.272 107.163 348.447 107.374 348.682 107.516C348.911 107.665 349.18 107.74 349.489 107.74C349.711 107.74 349.926 107.693 350.128 107.598C350.329 107.503 350.511 107.367 350.666 107.184C350.82 107 350.928 106.783 350.995 106.526H352.071C351.983 106.973 351.822 107.367 351.573 107.706C351.331 108.045 351.029 108.31 350.666 108.493C350.302 108.676 349.912 108.771 349.482 108.771C348.964 108.771 348.507 108.656 348.11 108.425L348.117 108.432Z" fill="#000205"/>
<path d="M355.271 101.138H356.32V108.703H355.271V101.138ZM355.782 104.443H358.129V105.453H355.782V104.443ZM357.201 105.372L358.122 104.822L361.014 108.697H359.554L357.201 105.365V105.372ZM357.208 104.551L359.386 101.138H360.704L357.739 105.481L357.208 104.551Z" fill="#000205"/>
<path d="M363.958 101.138H365.007V108.703H363.958V101.138ZM364.577 107.72H366.608C367.139 107.72 367.529 107.618 367.771 107.414C368.013 107.211 368.134 106.919 368.134 106.553V106.539C368.134 106.281 368.087 106.064 368.006 105.881C367.919 105.698 367.778 105.555 367.589 105.453C367.401 105.352 367.159 105.304 366.863 105.304H364.57V104.348H366.863C367.253 104.348 367.542 104.259 367.744 104.069C367.946 103.879 368.04 103.615 368.04 103.255C368.04 102.896 367.932 102.597 367.71 102.407C367.489 102.217 367.159 102.129 366.722 102.129H364.577V101.145H366.917C367.401 101.145 367.805 101.226 368.134 101.396C368.463 101.566 368.706 101.796 368.867 102.102C369.028 102.407 369.109 102.773 369.109 103.194C369.109 103.452 369.062 103.696 368.961 103.927C368.86 104.158 368.712 104.348 368.504 104.51C368.302 104.673 368.047 104.782 367.744 104.836C368.047 104.884 368.309 104.992 368.531 105.162C368.753 105.331 368.921 105.548 369.035 105.806C369.149 106.064 369.21 106.342 369.21 106.641V106.654C369.21 107.062 369.122 107.428 368.941 107.74C368.759 108.052 368.504 108.29 368.174 108.466C367.838 108.636 367.455 108.724 367.011 108.724H364.591V107.74L364.577 107.72Z" fill="#000205"/>
<path d="M372.578 101.138H373.627V108.703H372.578V101.138ZM373.123 107.693H375.288C375.53 107.693 375.732 107.645 375.907 107.55C376.075 107.455 376.209 107.313 376.297 107.123C376.384 106.933 376.431 106.709 376.431 106.444C376.431 106.179 376.384 105.949 376.297 105.766C376.209 105.582 376.075 105.433 375.907 105.338C375.739 105.236 375.53 105.189 375.288 105.189H373.123V104.178H375.255C375.732 104.178 376.135 104.266 376.472 104.443C376.808 104.619 377.063 104.877 377.245 105.216C377.42 105.555 377.514 105.962 377.514 106.444C377.514 106.926 377.426 107.326 377.245 107.665C377.07 108.005 376.808 108.262 376.472 108.439C376.135 108.615 375.725 108.703 375.255 108.703H373.123V107.693ZM379.551 108.703H378.502V101.138H379.551V108.703Z" fill="#000205"/>
</g>
<defs>
<linearGradient id="paint0_linear_2005_4" x1="143" y1="87.4124" x2="253.304" y2="87.4124" gradientUnits="userSpaceOnUse">
<stop stop-color="#41D7DE"/>
<stop offset="0.21" stop-color="#3BD0D7"/>
<stop offset="0.5" stop-color="#2ABEC6"/>
<stop offset="0.84" stop-color="#0FA1AA"/>
<stop offset="1" stop-color="#00919B"/>
</linearGradient>
<clipPath id="clip0_2005_4">
<rect width="239.046" height="79.682" fill="white" transform="translate(143 47.5714)"/>
</clipPath>
</defs>
</svg>
