<svg width="411" height="257" viewBox="0 0 411 257" fill="none" xmlns="http://www.w3.org/2000/svg">
<path d="M0 257V0H278.5L411 128.114L274.243 257H0Z" fill="white"/>
<g clip-path="url(#clip0_2031_4904)">
<path d="M102.62 138.875L100 136.278L102.62 133.69H118.311L120.931 136.278L118.311 138.875H102.62Z" fill="#0047FF"/>
<path d="M106.153 157.934L103.533 155.346L106.153 152.748H118.311L120.931 155.346L118.311 157.934H106.153Z" fill="#0047FF"/>
<path d="M124.464 151.833L121.844 154.431L119.224 151.833V139.79L121.844 137.193L124.464 139.79V151.833Z" fill="#0047FF"/>
<path d="M161.841 138.875L159.221 136.278L161.841 133.69H177.532L180.151 136.278L177.532 138.875H161.841Z" fill="#0047FF"/>
<path d="M165.384 157.934L162.764 155.336L165.384 152.739H177.541L180.161 155.336L177.541 157.934H165.384Z" fill="#0047FF"/>
<path d="M183.685 151.833L181.065 154.431L178.445 151.833V139.79L181.065 137.193L183.685 139.79V151.833Z" fill="#0047FF"/>
<path d="M121.844 171.816L124.464 174.413L121.844 177.01H106.153L103.533 174.413L106.153 171.816H121.844Z" fill="#0047FF"/>
<path d="M100 158.858L102.62 156.261L105.24 158.858V170.901L102.62 173.498L100 170.901V158.858Z" fill="#0047FF"/>
<path d="M161.841 171.816L159.221 174.413L161.841 177.01H177.532L180.151 174.413L177.532 171.816H161.841Z" fill="#0047FF"/>
<path d="M183.685 158.858L181.065 156.261L178.445 158.858V170.901L181.065 173.498L183.685 170.901V158.858Z" fill="#0047FF"/>
<path d="M135.848 138.875L133.228 136.278L135.848 133.69H147.996L150.616 136.278L147.996 138.875H135.848Z" fill="#0047FF"/>
<path d="M134.925 151.833L132.305 154.431H129.685V139.79L132.305 137.193L134.925 139.79V151.833Z" fill="#0047FF"/>
<path d="M148.928 151.833L151.539 154.431H154.158V139.79L151.539 137.193L148.928 139.79V151.833Z" fill="#0047FF"/>
<path d="M148.005 171.816L150.625 174.413L148.005 177.01H135.857L133.237 174.413L135.857 171.816H148.005Z" fill="#0047FF"/>
<path d="M148.928 158.858L151.539 156.261H154.158V170.901L151.539 173.498L148.928 170.901V158.858Z" fill="#0047FF"/>
<path d="M134.925 158.858L132.305 156.261H129.685V170.901L132.305 173.498L134.925 170.901V158.858Z" fill="#0047FF"/>
<path d="M195.069 138.875L192.458 136.278L195.069 133.69H207.217L209.836 136.278L207.217 138.875H195.069Z" fill="#0047FF"/>
<path d="M194.146 151.833L191.526 154.431H188.906V139.79L191.526 137.193L194.146 139.79V151.833Z" fill="#0047FF"/>
<path d="M208.149 151.833L210.769 154.431H213.389V139.79L210.769 137.193L208.149 139.79V151.833Z" fill="#0047FF"/>
<path d="M207.226 171.816L209.846 174.413L207.226 177.01H195.078L192.467 174.413L195.078 171.816H207.226Z" fill="#0047FF"/>
<path d="M208.149 158.858L210.769 156.261H213.389V170.901L210.769 173.498L208.149 170.901V158.858Z" fill="#0047FF"/>
<path d="M194.146 158.858L191.526 156.261H188.906V170.901L191.526 173.498L194.146 170.901V158.858Z" fill="#0047FF"/>
<path d="M265.768 98.1541L263.148 100.751H260.528V86.1019L263.148 83.5047L265.768 86.1019V98.1541Z" fill="#010037"/>
<path d="M266.691 85.187L264.071 82.5898L266.691 79.9927H278.839L281.459 82.5898L278.839 85.187H266.691Z" fill="#010037"/>
<path d="M266.691 104.254L264.071 101.666L266.691 99.0686H278.839L281.459 101.666L278.839 104.254H266.691Z" fill="#010037"/>
<path d="M285.002 100.742H282.391L279.772 98.1448V86.1019L282.391 83.5047L285.002 86.1019V100.742Z" fill="#010037"/>
<path d="M265.768 120.724L263.148 123.321L260.528 120.724V102.581H263.148L265.768 105.178V120.733V120.724Z" fill="#010037"/>
<path d="M285.002 120.724L282.391 123.321L279.772 120.724V105.169L282.391 102.572H285.002V120.724Z" fill="#010037"/>
<path d="M236.996 104.254L234.376 101.666L236.996 99.0686H249.153L251.764 101.666L249.153 104.254H236.996Z" fill="#010037"/>
<path d="M236.073 98.1542L233.463 100.751H230.843V80.917L236.073 86.102V98.1542Z" fill="#010037"/>
<path d="M255.308 98.1541L252.688 100.751L250.068 98.1541V86.1019L252.688 83.5047L255.308 86.1019V98.1541Z" fill="#010037"/>
<path d="M249.154 80.0019H231.767L236.997 85.187H249.154L251.774 82.5898L249.154 79.9927V80.0019Z" fill="#010037"/>
<path d="M236.073 105.169L233.463 102.572H230.843V122.397L236.073 117.212V105.169Z" fill="#010037"/>
<path d="M255.308 105.169L252.688 102.572L250.068 105.169V117.212L252.688 119.809L255.308 117.212V105.169Z" fill="#010037"/>
<path d="M249.154 123.321H231.767L236.997 118.136H249.154L251.774 120.733L249.154 123.33V123.321Z" fill="#010037"/>
<path d="M105.231 98.1535L102.611 100.751H100.001V82.5984L102.621 80.0013L105.24 82.5984V98.1535H105.231Z" fill="#010037"/>
<path d="M131.309 98.1536L133.929 100.751H136.548V82.5984L133.929 80.0013L131.309 82.5984V98.1536Z" fill="#010037"/>
<path d="M105.232 120.724L102.612 123.321L99.9922 120.724V102.581H102.621L105.241 105.178V120.733L105.232 120.724Z" fill="#010037"/>
<path d="M131.309 120.724L133.929 123.321L136.548 120.724V102.581H133.929L131.309 105.178V120.733V120.724Z" fill="#010037"/>
<path d="M117.623 97.0912V93.4312L110.239 86.1112H106.538V89.7804L113.912 97.0912H117.623Z" fill="#010037"/>
<path d="M130.004 86.1025V89.7626L122.62 97.0826H118.919V93.4134L126.294 86.1025H130.004Z" fill="#010037"/>
<path d="M207.303 104.254L204.683 101.666L207.303 99.0686H219.451L222.07 101.666L219.451 104.254H207.303Z" fill="#010037"/>
<path d="M206.379 98.1536L203.76 100.751H201.14V82.5984L203.76 80.0013L206.379 82.5984V98.1536Z" fill="#010037"/>
<path d="M206.379 120.724L203.76 123.321L201.14 120.724V102.581H203.76L206.379 105.178V120.733V120.724Z" fill="#010037"/>
<path d="M220.382 120.724L223.002 123.321L225.621 120.724V105.169L223.002 102.572L220.382 105.169V120.724Z" fill="#010037"/>
<path d="M225.612 80.0013H221.911L207.684 94.1053V97.7746H211.385L225.612 83.6706V80.0013Z" fill="#010037"/>
<path d="M147.923 85.187L145.303 82.5898L147.923 79.9927H160.071L162.691 82.5898L160.071 85.187H147.923Z" fill="#010037"/>
<path d="M147 98.1541L144.381 100.751H141.77V86.1019L144.381 83.5047L147 86.1019V98.1541Z" fill="#010037"/>
<path d="M161.004 98.1541L163.623 100.751H166.243V86.1019L163.623 83.5047L161.004 86.1019V98.1541Z" fill="#010037"/>
<path d="M160.07 118.136L162.69 120.733L160.07 123.33H147.922L145.312 120.733L147.922 118.136H160.07Z" fill="#010037"/>
<path d="M161.004 105.169L163.623 102.572H166.243V117.212L163.623 119.809L161.004 117.212V105.169Z" fill="#010037"/>
<path d="M147 105.169L144.381 102.572H141.77V117.212L144.381 119.809L147 117.212V105.169Z" fill="#010037"/>
<path d="M177.616 85.187L174.996 82.5898L177.616 79.9927H189.764L192.384 82.5898L189.764 85.187H177.616Z" fill="#010037"/>
<path d="M176.694 98.1541L174.075 100.751H171.455V86.1019L174.075 83.5047L176.694 86.1019V98.1541Z" fill="#010037"/>
<path d="M190.688 89.5308L193.308 92.1187L195.928 89.5308V86.1019L193.308 83.5047L190.688 86.1019V89.5308Z" fill="#010037"/>
<path d="M177.616 118.136L174.996 120.733L177.616 123.33H189.764L192.384 120.733L189.764 118.136H177.616Z" fill="#010037"/>
<path d="M176.694 105.169L174.075 102.572H171.455V117.212L174.075 119.809L176.694 117.212V105.169Z" fill="#010037"/>
<path d="M190.688 113.784L193.308 111.186L195.928 113.784V117.213L193.308 119.81L190.688 117.213V113.784Z" fill="#010037"/>
</g>
<defs>
<clipPath id="clip0_2031_4904">
<rect width="185" height="97" fill="white" transform="translate(100 80)"/>
</clipPath>
</defs>
</svg>
