<svg width="620" height="257" viewBox="0 0 620 257" fill="none" xmlns="http://www.w3.org/2000/svg">
<path d="M0 257V0H482.443L618.5 128.114L482.443 257H0Z" fill="url(#paint0_linear_2015_1984)"/>
<path d="M198.58 117V91.44L199.58 92.48H189.02V89H212.1V92.48H201.54L202.5 91.44V117H198.58ZM221.402 101.08H235.802V104.48H221.402V101.08ZM221.762 113.52H238.082V117H217.762V89H237.522V92.48H221.762V113.52ZM245.163 117V89H256.083C258.536 89 260.63 89.3867 262.363 90.16C264.096 90.9333 265.43 92.0533 266.363 93.52C267.296 94.9867 267.763 96.7333 267.763 98.76C267.763 100.787 267.296 102.533 266.363 104C265.43 105.44 264.096 106.56 262.363 107.36C260.63 108.133 258.536 108.52 256.083 108.52H247.363L249.163 106.64V117H245.163ZM249.163 107.04L247.363 105.04H255.963C258.523 105.04 260.456 104.493 261.763 103.4C263.096 102.307 263.763 100.76 263.763 98.76C263.763 96.76 263.096 95.2133 261.763 94.12C260.456 93.0267 258.523 92.48 255.963 92.48H247.363L249.163 90.48V107.04ZM274.127 117V89H285.047C287.501 89 289.594 89.3867 291.327 90.16C293.061 90.9333 294.394 92.0533 295.327 93.52C296.261 94.9867 296.727 96.7333 296.727 98.76C296.727 100.787 296.261 102.533 295.327 104C294.394 105.44 293.061 106.56 291.327 107.36C289.594 108.133 287.501 108.52 285.047 108.52H276.327L278.127 106.64V117H274.127ZM278.127 107.04L276.327 105.04H284.927C287.487 105.04 289.421 104.493 290.727 103.4C292.061 102.307 292.727 100.76 292.727 98.76C292.727 96.76 292.061 95.2133 290.727 94.12C289.421 93.0267 287.487 92.48 284.927 92.48H276.327L278.127 90.48V107.04ZM303.091 117V89H307.051V110.6L323.611 89H327.291V117H323.371V95.44L306.771 117H303.091ZM342.541 117V91.44L343.541 92.48H332.981V89H356.061V92.48H345.501L346.461 91.44V117H342.541ZM373.932 117.32C371.799 117.32 369.812 116.96 367.972 116.24C366.159 115.52 364.585 114.52 363.252 113.24C361.919 111.933 360.879 110.413 360.132 108.68C359.385 106.947 359.012 105.053 359.012 103C359.012 100.947 359.385 99.0533 360.132 97.32C360.879 95.5867 361.919 94.08 363.252 92.8C364.585 91.4933 366.159 90.48 367.972 89.76C369.785 89.04 371.772 88.68 373.932 88.68C376.065 88.68 378.025 89.04 379.812 89.76C381.625 90.4533 383.199 91.4533 384.532 92.76C385.892 94.04 386.932 95.5467 387.652 97.28C388.399 99.0133 388.772 100.92 388.772 103C388.772 105.08 388.399 106.987 387.652 108.72C386.932 110.453 385.892 111.973 384.532 113.28C383.199 114.56 381.625 115.56 379.812 116.28C378.025 116.973 376.065 117.32 373.932 117.32ZM373.932 113.76C375.479 113.76 376.905 113.493 378.212 112.96C379.545 112.427 380.692 111.68 381.652 110.72C382.639 109.733 383.399 108.587 383.932 107.28C384.492 105.973 384.772 104.547 384.772 103C384.772 101.453 384.492 100.027 383.932 98.72C383.399 97.4133 382.639 96.28 381.652 95.32C380.692 94.3333 379.545 93.5733 378.212 93.04C376.905 92.5067 375.479 92.24 373.932 92.24C372.359 92.24 370.905 92.5067 369.572 93.04C368.265 93.5733 367.119 94.3333 366.132 95.32C365.145 96.28 364.372 97.4133 363.812 98.72C363.279 100.027 363.012 101.453 363.012 103C363.012 104.547 363.279 105.973 363.812 107.28C364.372 108.587 365.145 109.733 366.132 110.72C367.119 111.68 368.265 112.427 369.572 112.96C370.905 113.493 372.359 113.76 373.932 113.76ZM396.038 117V89H406.958C409.411 89 411.505 89.3867 413.238 90.16C414.971 90.9333 416.305 92.0533 417.238 93.52C418.171 94.9867 418.638 96.7333 418.638 98.76C418.638 100.787 418.171 102.533 417.238 104C416.305 105.44 414.971 106.56 413.238 107.36C411.505 108.133 409.411 108.52 406.958 108.52H398.238L400.038 106.64V117H396.038ZM400.038 107.04L398.238 105.04H406.838C409.398 105.04 411.331 104.493 412.638 103.4C413.971 102.307 414.638 100.76 414.638 98.76C414.638 96.76 413.971 95.2133 412.638 94.12C411.331 93.0267 409.398 92.48 406.838 92.48H398.238L400.038 90.48V107.04ZM425.002 117V89H428.962V110.6L445.522 89H449.202V117H445.282V95.44L428.682 117H425.002ZM475.332 117V107.88L476.372 108.84H467.612C465.345 108.84 463.385 108.453 461.732 107.68C460.105 106.907 458.852 105.8 457.972 104.36C457.119 102.893 456.692 101.133 456.692 99.08C456.692 96.9467 457.159 95.1333 458.092 93.64C459.025 92.12 460.345 90.9733 462.052 90.2C463.759 89.4 465.745 89 468.012 89H479.252V117H475.332ZM456.692 117L463.612 107.08H467.692L460.932 117H456.692ZM475.332 106.6V91.32L476.372 92.48H468.172C465.772 92.48 463.932 93.04 462.652 94.16C461.372 95.2533 460.732 96.88 460.732 99.04C460.732 101.093 461.332 102.68 462.532 103.8C463.759 104.92 465.559 105.48 467.932 105.48H476.372L475.332 106.6ZM192.86 159V131H213.98V134.4H196.82V142.4H205.54C208.873 142.4 211.407 143.093 213.14 144.48C214.873 145.867 215.74 147.88 215.74 150.52C215.74 153.24 214.793 155.333 212.9 156.8C211.033 158.267 208.353 159 204.86 159H192.86ZM196.82 155.84H204.7C207.02 155.84 208.767 155.4 209.94 154.52C211.14 153.64 211.74 152.333 211.74 150.6C211.74 147.24 209.393 145.56 204.7 145.56H196.82V155.84ZM221.939 155.48C223.326 155.987 224.606 156.12 225.779 155.88C226.953 155.613 228.006 154.72 228.939 153.2L230.299 151.04L230.699 150.6L240.979 131H244.939L232.499 154.04C231.566 155.8 230.473 157.133 229.219 158.04C227.993 158.92 226.659 159.4 225.219 159.48C223.806 159.587 222.366 159.32 220.899 158.68L221.939 155.48ZM230.579 154.16L218.299 131H222.579L232.779 150.96L230.579 154.16ZM268.177 157.12V134.48H255.897L255.697 140.36C255.617 142.333 255.484 144.227 255.297 146.04C255.137 147.853 254.897 149.493 254.577 150.96C254.257 152.4 253.804 153.587 253.217 154.52C252.657 155.453 251.937 156.027 251.057 156.24L246.737 155.52C247.777 155.6 248.631 155.253 249.297 154.48C249.991 153.68 250.524 152.573 250.897 151.16C251.297 149.72 251.591 148.053 251.777 146.16C251.964 144.24 252.097 142.187 252.177 140L252.457 131H272.137V157.12H268.177ZM245.737 165.12L245.777 155.52H276.257V165.12H272.537V159H249.497L249.457 165.12H245.737ZM282.446 155.48C283.832 155.987 285.112 156.12 286.286 155.88C287.459 155.613 288.512 154.72 289.446 153.2L290.806 151.04L291.206 150.6L301.486 131H305.446L293.006 154.04C292.072 155.8 290.979 157.133 289.726 158.04C288.499 158.92 287.166 159.4 285.726 159.48C284.312 159.587 282.872 159.32 281.406 158.68L282.446 155.48ZM291.086 154.16L278.806 131H283.086L293.286 150.96L291.086 154.16ZM326.916 155.52L325.996 156.56V131H329.916V156.56L328.916 155.52H342.556L341.556 156.56V131H345.476V159H310.396V131H314.356V156.56L313.356 155.52H326.916ZM345.996 165.12V157.96L346.996 159H341.476V155.52H349.676V165.12H345.996ZM359.68 143.08H374.08V146.48H359.68V143.08ZM360.04 155.52H376.36V159H356.04V131H375.8V134.48H360.04V155.52ZM383.441 159V131H401.801L401.761 134.48H386.401L387.361 133.48L387.401 159H383.441ZM416.412 159.32C414.278 159.32 412.292 158.96 410.452 158.24C408.638 157.52 407.065 156.52 405.732 155.24C404.398 153.933 403.358 152.413 402.612 150.68C401.865 148.947 401.492 147.053 401.492 145C401.492 142.947 401.865 141.053 402.612 139.32C403.358 137.587 404.398 136.08 405.732 134.8C407.065 133.493 408.638 132.48 410.452 131.76C412.265 131.04 414.252 130.68 416.412 130.68C418.545 130.68 420.505 131.04 422.292 131.76C424.105 132.453 425.678 133.453 427.012 134.76C428.372 136.04 429.412 137.547 430.132 139.28C430.878 141.013 431.252 142.92 431.252 145C431.252 147.08 430.878 148.987 430.132 150.72C429.412 152.453 428.372 153.973 427.012 155.28C425.678 156.56 424.105 157.56 422.292 158.28C420.505 158.973 418.545 159.32 416.412 159.32ZM416.412 155.76C417.958 155.76 419.385 155.493 420.692 154.96C422.025 154.427 423.172 153.68 424.132 152.72C425.118 151.733 425.878 150.587 426.412 149.28C426.972 147.973 427.252 146.547 427.252 145C427.252 143.453 426.972 142.027 426.412 140.72C425.878 139.413 425.118 138.28 424.132 137.32C423.172 136.333 422.025 135.573 420.692 135.04C419.385 134.507 417.958 134.24 416.412 134.24C414.838 134.24 413.385 134.507 412.052 135.04C410.745 135.573 409.598 136.333 408.612 137.32C407.625 138.28 406.852 139.413 406.292 140.72C405.758 142.027 405.492 143.453 405.492 145C405.492 146.547 405.758 147.973 406.292 149.28C406.852 150.587 407.625 151.733 408.612 152.72C409.598 153.68 410.745 154.427 412.052 154.96C413.385 155.493 414.838 155.76 416.412 155.76Z" fill="white"/>
<defs>
<linearGradient id="paint0_linear_2015_1984" x1="0" y1="128.5" x2="618.5" y2="128.5" gradientUnits="userSpaceOnUse">
<stop stop-color="#7E37DE"/>
<stop offset="0.25" stop-color="#6259E3"/>
<stop offset="0.5" stop-color="#427FE8"/>
<stop offset="0.75" stop-color="#21A4ED"/>
<stop offset="1" stop-color="#00CAF1"/>
</linearGradient>
</defs>
</svg>
