<svg width="319" height="171" viewBox="0 0 319 171" fill="none" xmlns="http://www.w3.org/2000/svg">
<path d="M0 170.068V0H230.424L318.728 84.7785L230.424 170.068H0Z" fill="#1F212D"/>
<g clip-path="url(#clip0_2005_2)">
<path d="M67.1874 91.7961L65.4106 90.0289L67.1874 88.2679H77.8292L79.606 90.0289L77.8292 91.7961H67.1874Z" fill="#0D9E99"/>
<path d="M69.5839 104.764L67.8071 103.004L69.5839 101.236H77.8293L79.6061 103.004L77.8293 104.764H69.5839Z" fill="#0D9E99"/>
<path d="M82.0025 100.614L80.2257 102.381L78.4489 100.614V92.4188L80.2257 90.6515L82.0025 92.4188V100.614Z" fill="#0D9E99"/>
<path d="M107.352 91.7961L105.575 90.0289L107.352 88.2679H117.994L119.77 90.0289L117.994 91.7961H107.352Z" fill="#0D9E99"/>
<path d="M109.755 104.764L107.978 102.997L109.755 101.23H118L119.777 102.997L118 104.764H109.755Z" fill="#0D9E99"/>
<path d="M122.167 100.614L120.39 102.381L118.613 100.614V92.4188L120.39 90.6515L122.167 92.4188V100.614Z" fill="#0D9E99"/>
<path d="M80.2257 114.211L82.0025 115.978L80.2257 117.745H69.5839L67.8071 115.978L69.5839 114.211H80.2257Z" fill="#0D9E99"/>
<path d="M65.4106 105.393L67.1874 103.626L68.9642 105.393V113.588L67.1874 115.356L65.4106 113.588V105.393Z" fill="#0D9E99"/>
<path d="M107.352 114.211L105.575 115.978L107.352 117.745H117.994L119.77 115.978L117.994 114.211H107.352Z" fill="#0D9E99"/>
<path d="M122.167 105.393L120.39 103.626L118.613 105.393V113.588L120.39 115.356L122.167 113.588V105.393Z" fill="#0D9E99"/>
<path d="M89.723 91.7961L87.9462 90.0289L89.723 88.2679H97.962L99.7388 90.0289L97.962 91.7961H89.723Z" fill="#0D9E99"/>
<path d="M89.097 100.614L87.3203 102.381H85.5435V92.4188L87.3203 90.6515L89.097 92.4188V100.614Z" fill="#0D9E99"/>
<path d="M98.5943 100.614L100.365 102.381H102.142V92.4188L100.365 90.6515L98.5943 92.4188V100.614Z" fill="#0D9E99"/>
<path d="M97.9683 114.211L99.7451 115.978L97.9683 117.745H89.7293L87.9525 115.978L89.7293 114.211H97.9683Z" fill="#0D9E99"/>
<path d="M98.5943 105.393L100.365 103.626H102.142V113.588L100.365 115.356L98.5943 113.588V105.393Z" fill="#0D9E99"/>
<path d="M89.097 105.393L87.3203 103.626H85.5435V113.588L87.3203 115.356L89.097 113.588V105.393Z" fill="#0D9E99"/>
<path d="M129.887 91.7961L128.117 90.0289L129.887 88.2679H138.126L139.903 90.0289L138.126 91.7961H129.887Z" fill="#0D9E99"/>
<path d="M129.261 100.614L127.485 102.381H125.708V92.4188L127.485 90.6515L129.261 92.4188V100.614Z" fill="#0D9E99"/>
<path d="M138.759 100.614L140.536 102.381H142.312V92.4188L140.536 90.6515L138.759 92.4188V100.614Z" fill="#0D9E99"/>
<path d="M138.133 114.211L139.91 115.978L138.133 117.745H129.894L128.123 115.978L129.894 114.211H138.133Z" fill="#0D9E99"/>
<path d="M138.759 105.393L140.536 103.626H142.312V113.588L140.536 115.356L138.759 113.588V105.393Z" fill="#0D9E99"/>
<path d="M129.261 105.393L127.485 103.626H125.708V113.588L127.485 115.356L129.261 113.588V105.393Z" fill="#0D9E99"/>
<path d="M177.836 64.0859L176.059 65.8532H174.282V55.8848L176.059 54.1175L177.836 55.8848V64.0796V64.0859Z" fill="#F4F5FA"/>
<path d="M178.462 55.2621L176.685 53.4949L178.462 51.7276H186.701L188.477 53.4949L186.701 55.2621H178.462Z" fill="#F4F5FA"/>
<path d="M178.462 68.2367L176.685 66.4758L178.462 64.7085H186.701L188.477 66.4758L186.701 68.2367H178.462Z" fill="#F4F5FA"/>
<path d="M190.88 65.8469H189.11L187.333 64.0796V55.8848L189.11 54.1175L190.88 55.8848V65.8469Z" fill="#F4F5FA"/>
<path d="M177.836 79.4441L176.059 81.2114L174.282 79.4441V67.0984H176.059L177.836 68.8657V79.4504V79.4441Z" fill="#F4F5FA"/>
<path d="M190.88 79.4441L189.11 81.2114L187.333 79.4441V68.8594L189.11 67.0921H190.88V79.4441Z" fill="#F4F5FA"/>
<path d="M158.322 68.2367L156.546 66.4758L158.322 64.7085H166.568L168.338 66.4758L166.568 68.2367H158.322Z" fill="#F4F5FA"/>
<path d="M157.696 64.0859L155.926 65.8532H154.149V52.3565L157.696 55.8848V64.0796V64.0859Z" fill="#F4F5FA"/>
<path d="M170.741 64.0859L168.964 65.8532L167.187 64.0859V55.8848L168.964 54.1175L170.741 55.8848V64.0796V64.0859Z" fill="#F4F5FA"/>
<path d="M166.568 51.7339H154.775L158.322 55.2621H166.568L168.345 53.4949L166.568 51.7276V51.7339Z" fill="#F4F5FA"/>
<path d="M157.696 68.8594L155.926 67.0921H154.149V80.5825L157.696 77.0542V68.8594Z" fill="#F4F5FA"/>
<path d="M170.741 68.8594L168.964 67.0921L167.187 68.8594V77.0542L168.964 78.8215L170.741 77.0542V68.8594Z" fill="#F4F5FA"/>
<path d="M166.568 81.2114H154.775L158.322 77.6832H166.568L168.345 79.4504L166.568 81.2177V81.2114Z" fill="#F4F5FA"/>
<path d="M68.9579 64.0859L67.1811 65.8532H65.4106V53.5012L67.1874 51.7339L68.9642 53.5012V64.0859H68.9579Z" fill="#F4F5FA"/>
<path d="M86.6437 64.0859L88.4205 65.8532H90.1973V53.5012L88.4205 51.7339L86.6437 53.5012V64.0859Z" fill="#F4F5FA"/>
<path d="M68.9579 79.4441L67.1812 81.2114L65.4044 79.4441V67.0984H67.1875L68.9643 68.8657V79.4504L68.9579 79.4441Z" fill="#F4F5FA"/>
<path d="M86.6437 79.4441L88.4205 81.2114L90.1973 79.4441V67.0984H88.4205L86.6437 68.8657V79.4504V79.4441Z" fill="#F4F5FA"/>
<path d="M77.3613 63.3626V60.8721L72.3534 55.8911H69.8431V58.3879L74.8447 63.3626H77.3613Z" fill="#F4F5FA"/>
<path d="M85.7584 55.8848V58.3753L80.7505 63.3563H78.2402V60.8595L83.2418 55.8848H85.7584Z" fill="#F4F5FA"/>
<path d="M138.183 68.2367L136.407 66.4758L138.183 64.7085H146.422L148.199 66.4758L146.422 68.2367H138.183Z" fill="#F4F5FA"/>
<path d="M137.557 64.0859L135.781 65.8532H134.004V53.5012L135.781 51.7339L137.557 53.5012V64.0859Z" fill="#F4F5FA"/>
<path d="M137.557 79.4441L135.781 81.2114L134.004 79.4441V67.0984H135.781L137.557 68.8657V79.4504V79.4441Z" fill="#F4F5FA"/>
<path d="M147.055 79.4441L148.831 81.2114L150.608 79.4441V68.8594L148.831 67.0921L147.055 68.8594V79.4441Z" fill="#F4F5FA"/>
<path d="M150.602 51.7339H148.092L138.443 61.3312V63.828H140.953L150.602 54.2307V51.7339Z" fill="#F4F5FA"/>
<path d="M97.9114 55.2621L96.1346 53.4949L97.9114 51.7276H106.15L107.927 53.4949L106.15 55.2621H97.9114Z" fill="#F4F5FA"/>
<path d="M97.2855 64.0859L95.5087 65.8532H93.7382V55.8848L95.5087 54.1175L97.2855 55.8848V64.0796V64.0859Z" fill="#F4F5FA"/>
<path d="M106.783 64.0859L108.56 65.8532H110.336V55.8848L108.56 54.1175L106.783 55.8848V64.0796V64.0859Z" fill="#F4F5FA"/>
<path d="M106.15 77.6832L107.927 79.4504L106.15 81.2177H97.9115L96.141 79.4504L97.9115 77.6832H106.15Z" fill="#F4F5FA"/>
<path d="M106.783 68.8594L108.56 67.0921H110.336V77.0542L108.56 78.8215L106.783 77.0542V68.8594Z" fill="#F4F5FA"/>
<path d="M97.2855 68.8594L95.5087 67.0921H93.7382V77.0542L95.5087 78.8215L97.2855 77.0542V68.8594Z" fill="#F4F5FA"/>
<path d="M118.051 55.2621L116.274 53.4949L118.051 51.7276H126.29L128.066 53.4949L126.29 55.2621H118.051Z" fill="#F4F5FA"/>
<path d="M117.425 64.0859L115.648 65.8532H113.871V55.8848L115.648 54.1175L117.425 55.8848V64.0796V64.0859Z" fill="#F4F5FA"/>
<path d="M126.916 58.2181L128.692 59.979L130.469 58.2181V55.8848L128.692 54.1175L126.916 55.8848V58.2181Z" fill="#F4F5FA"/>
<path d="M118.051 77.6832L116.274 79.4504L118.051 81.2177H126.29L128.066 79.4504L126.29 77.6832H118.051Z" fill="#F4F5FA"/>
<path d="M117.425 68.8594L115.648 67.0921H113.871V77.0542L115.648 78.8215L117.425 77.0542V68.8594Z" fill="#F4F5FA"/>
<path d="M126.916 74.7209L128.692 72.9537L130.469 74.7209V77.0542L128.692 78.8215L126.916 77.0542V74.7209Z" fill="#F4F5FA"/>
</g>
<defs>
<clipPath id="clip0_2005_2">
<rect width="125.469" height="66.0053" fill="white" transform="translate(65.4106 51.7339)"/>
</clipPath>
</defs>
</svg>
