<svg width="112" height="112" viewBox="0 0 112 112" fill="none" xmlns="http://www.w3.org/2000/svg">
<rect width="112" height="112" rx="56" fill="#9D28FF"/>
<path d="M36 44C36 40.2288 36 38.3431 37.1716 37.1716C38.3431 36 40.2288 36 44 36C47.7712 36 49.6569 36 50.8284 37.1716C52 38.3431 52 40.2288 52 44V68C52 71.7712 52 73.6569 50.8284 74.8284C49.6569 76 47.7712 76 44 76C40.2288 76 38.3431 76 37.1716 74.8284C36 73.6569 36 71.7712 36 68V44Z" fill="white"/>
<path d="M60 44C60 40.2288 60 38.3431 61.1716 37.1716C62.3431 36 64.2288 36 68 36C71.7712 36 73.6569 36 74.8284 37.1716C76 38.3431 76 40.2288 76 44V68C76 71.7712 76 73.6569 74.8284 74.8284C73.6569 76 71.7712 76 68 76C64.2288 76 62.3431 76 61.1716 74.8284C60 73.6569 60 71.7712 60 68V44Z" fill="white"/>
</svg>
