<svg width="161" height="85" viewBox="0 0 161 85" fill="none" xmlns="http://www.w3.org/2000/svg">
<g clip-path="url(#clip0_4_487)">
<path d="M2.27973 51.5913L0 49.3155L2.27973 47.0477H15.9338L18.2135 49.3155L15.9338 51.5913H2.27973Z" fill="#0047FF"/>
<path d="M5.35444 68.2916L3.07471 66.0239L5.35444 63.748H15.9337L18.2134 66.0239L15.9337 68.2916H5.35444Z" fill="#0047FF"/>
<path d="M21.2885 62.9463L19.0087 65.2221L16.729 62.9463V52.3932L19.0087 50.1173L21.2885 52.3932V62.9463Z" fill="#0047FF"/>
<path d="M53.8129 51.5913L51.5332 49.3155L53.8129 47.0477H67.467L69.7467 49.3155L67.467 51.5913H53.8129Z" fill="#0047FF"/>
<path d="M56.8959 68.2917L54.6162 66.0158L56.8959 63.74H67.4752L69.7549 66.0158L67.4752 68.2917H56.8959Z" fill="#0047FF"/>
<path d="M72.8217 62.9463L70.5419 65.2221L68.2622 62.9463V52.3932L70.5419 50.1173L72.8217 52.3932V62.9463Z" fill="#0047FF"/>
<path d="M19.0085 80.4565L21.2882 82.7324L19.0085 85.0082H5.35444L3.07471 82.7324L5.35444 80.4565H19.0085Z" fill="#0047FF"/>
<path d="M0 69.1015L2.27973 66.8257L4.55947 69.1015V79.6546L2.27973 81.9305L0 79.6546V69.1015Z" fill="#0047FF"/>
<path d="M53.8129 80.4565L51.5332 82.7324L53.8129 85.0082H67.467L69.7467 82.7324L67.467 80.4565H53.8129Z" fill="#0047FF"/>
<path d="M72.8217 69.1015L70.5419 66.8257L68.2622 69.1015V79.6546L70.5419 81.9305L72.8217 79.6546V69.1015Z" fill="#0047FF"/>
<path d="M31.1943 51.5913L28.9146 49.3155L31.1943 47.0477H41.7654L44.0452 49.3155L41.7654 51.5913H31.1943Z" fill="#0047FF"/>
<path d="M30.391 62.9463L28.1113 65.2221H25.8315V52.3932L28.1113 50.1173L30.391 52.3932V62.9463Z" fill="#0047FF"/>
<path d="M42.5767 62.9463L44.8483 65.2221H47.128V52.3932L44.8483 50.1173L42.5767 52.3932V62.9463Z" fill="#0047FF"/>
<path d="M41.7732 80.4565L44.053 82.7324L41.7732 85.0082H31.2021L28.9224 82.7324L31.2021 80.4565H41.7732Z" fill="#0047FF"/>
<path d="M42.5767 69.1015L44.8483 66.8257H47.128V79.6546L44.8483 81.9305L42.5767 79.6546V69.1015Z" fill="#0047FF"/>
<path d="M30.391 69.1015L28.1113 66.8257H25.8315V79.6546L28.1113 81.9305L30.391 79.6546V69.1015Z" fill="#0047FF"/>
<path d="M82.7277 51.5913L80.4561 49.3155L82.7277 47.0477H93.2988L95.5786 49.3155L93.2988 51.5913H82.7277Z" fill="#0047FF"/>
<path d="M81.9242 62.9463L79.6445 65.2221H77.3647V52.3932L79.6445 50.1173L81.9242 52.3932V62.9463Z" fill="#0047FF"/>
<path d="M94.1099 62.9463L96.3896 65.2221H98.6693V52.3932L96.3896 50.1173L94.1099 52.3932V62.9463Z" fill="#0047FF"/>
<path d="M93.3066 80.4565L95.5864 82.7324L93.3066 85.0082H82.7355L80.4639 82.7324L82.7355 80.4565H93.3066Z" fill="#0047FF"/>
<path d="M94.1099 69.1015L96.3896 66.8257H98.6693V79.6546L96.3896 81.9305L94.1099 79.6546V69.1015Z" fill="#0047FF"/>
<path d="M81.9242 69.1015L79.6445 66.8257H77.3647V79.6546L79.6445 81.9305L81.9242 79.6546V69.1015Z" fill="#0047FF"/>
<path d="M144.247 15.9066L141.968 18.1825H139.688V5.34543L141.968 3.06958L144.247 5.34543V15.8985V15.9066Z" fill="black"/>
<path d="M145.051 4.54364L142.771 2.26779L145.051 -0.00805664H155.622L157.902 2.26779L155.622 4.54364H145.051Z" fill="black"/>
<path d="M145.051 21.2521L142.771 18.9843L145.051 16.7085H155.622L157.902 18.9843L155.622 21.2521H145.051Z" fill="black"/>
<path d="M160.984 18.1744H158.713L156.433 15.8985V5.34543L158.713 3.06958L160.984 5.34543V18.1744Z" fill="black"/>
<path d="M144.247 35.6847L141.968 37.9605L139.688 35.6847V19.7861H141.968L144.247 22.062V35.6928V35.6847Z" fill="black"/>
<path d="M160.984 35.6847L158.713 37.9605L156.433 35.6847V22.0539L158.713 19.7781H160.984V35.6847Z" fill="black"/>
<path d="M119.211 21.2521L116.932 18.9843L119.211 16.7085H129.791L132.062 18.9843L129.791 21.2521H119.211Z" fill="black"/>
<path d="M118.408 15.9067L116.136 18.1825H113.856V0.80188L118.408 5.34547V15.8986V15.9067Z" fill="black"/>
<path d="M135.145 15.9066L132.865 18.1825L130.585 15.9066V5.34543L132.865 3.06958L135.145 5.34543V15.8985V15.9066Z" fill="black"/>
<path d="M129.79 4.24553e-05H114.66L119.211 4.54364H129.79L132.07 2.26779L129.79 -0.00805664V4.24553e-05Z" fill="black"/>
<path d="M118.408 22.0539L116.136 19.7781H113.856V37.1506L118.408 32.607V22.0539Z" fill="black"/>
<path d="M135.145 22.0539L132.865 19.7781L130.585 22.0539V32.607L132.865 34.8829L135.145 32.607V22.0539Z" fill="black"/>
<path d="M129.79 37.9605H114.66L119.211 33.4169H129.79L132.07 35.6927L129.79 37.9686V37.9605Z" fill="black"/>
<path d="M4.55135 15.9066L2.27162 18.1825H0V2.27585L2.27973 0L4.55947 2.27585V15.9066H4.55135Z" fill="black"/>
<path d="M27.2432 15.9066L29.5229 18.1825H31.8026V2.27585L29.5229 0L27.2432 2.27585V15.9066Z" fill="black"/>
<path d="M4.55117 35.6847L2.27143 37.9605L-0.00830078 35.6847V19.7861H2.27955L4.55928 22.062V35.6928L4.55117 35.6847Z" fill="black"/>
<path d="M27.2432 35.6847L29.5229 37.9605L31.8026 35.6847V19.7861H29.5229L27.2432 22.062V35.6928V35.6847Z" fill="black"/>
<path d="M15.3333 14.9752V11.768L8.90784 5.35352H5.68701V8.56886L12.1043 14.9752H15.3333Z" fill="black"/>
<path d="M26.1072 5.34546V8.5527L19.6818 14.9672H16.4609V11.7518L22.8783 5.34546H26.1072Z" fill="black"/>
<path d="M93.3715 21.2521L91.0918 18.9843L93.3715 16.7085H103.943L106.222 18.9843L103.943 21.2521H93.3715Z" fill="black"/>
<path d="M92.5683 15.9066L90.2885 18.1825H88.0088V2.27585L90.2885 0L92.5683 2.27585V15.9066Z" fill="black"/>
<path d="M92.5683 35.6847L90.2885 37.9605L88.0088 35.6847V19.7861H90.2885L92.5683 22.062V35.6928V35.6847Z" fill="black"/>
<path d="M104.754 35.6847L107.034 37.9605L109.313 35.6847V22.0539L107.034 19.7781L104.754 22.0539V35.6847Z" fill="black"/>
<path d="M109.305 0H106.084L93.7041 12.3592V15.5746H96.9249L109.305 3.21534V0Z" fill="black"/>
<path d="M41.7001 4.54364L39.4204 2.26779L41.7001 -0.00805664H52.2713L54.551 2.26779L52.2713 4.54364H41.7001Z" fill="black"/>
<path d="M40.8971 15.9066L38.6173 18.1825H36.3457V5.34543L38.6173 3.06958L40.8971 5.34543V15.8985V15.9066Z" fill="black"/>
<path d="M53.0825 15.9066L55.3623 18.1825H57.642V5.34543L55.3623 3.06958L53.0825 5.34543V15.8985V15.9066Z" fill="black"/>
<path d="M52.2715 33.4169L54.5512 35.6927L52.2715 37.9686H41.7003L39.4287 35.6927L41.7003 33.4169H52.2715Z" fill="black"/>
<path d="M53.0825 22.0539L55.3623 19.7781H57.642V32.607L55.3623 34.8829L53.0825 32.607V22.0539Z" fill="black"/>
<path d="M40.8971 22.0539L38.6173 19.7781H36.3457V32.607L38.6173 34.8829L40.8971 32.607V22.0539Z" fill="black"/>
<path d="M67.54 4.54364L65.2603 2.26779L67.54 -0.00805664H78.1111L80.3909 2.26779L78.1111 4.54364H67.54Z" fill="black"/>
<path d="M66.7367 15.9066L64.457 18.1825H62.1772V5.34543L64.457 3.06958L66.7367 5.34543V15.8985V15.9066Z" fill="black"/>
<path d="M78.9141 8.35019L81.1938 10.6179L83.4735 8.35019V5.34543L81.1938 3.06958L78.9141 5.34543V8.35019Z" fill="black"/>
<path d="M67.54 33.4169L65.2603 35.6927L67.54 37.9686H78.1111L80.3909 35.6927L78.1111 33.4169H67.54Z" fill="black"/>
<path d="M66.7367 22.0539L64.457 19.7781H62.1772V32.607L64.457 34.8829L66.7367 32.607V22.0539Z" fill="black"/>
<path d="M78.9141 29.6023L81.1938 27.3264L83.4735 29.6023V32.607L81.1938 34.8829L78.9141 32.607V29.6023Z" fill="black"/>
</g>
<defs>
<clipPath id="clip0_4_487">
<rect width="160.985" height="85" fill="white"/>
</clipPath>
</defs>
</svg>
