<svg width="261" height="87" viewBox="0 0 261 87" fill="none" xmlns="http://www.w3.org/2000/svg">
<g clip-path="url(#clip0_24_559)">
<path d="M28.9254 56.4789L29.9532 56.5011C30.9443 56.5011 32.163 56.6789 33.4404 57.0641C35.1949 57.5975 37.2212 58.2494 37.7644 58.5013C40.5908 59.7977 42.2867 60.657 44.4818 61.8793C48.2626 63.9832 51.5588 65.976 53.196 67.0798C53.196 67.0798 54.7156 68.1095 58.6212 70.2949C59.1865 70.6134 60.229 71.1838 61.6973 71.6135C62.9012 71.9617 63.8556 72.058 64.3622 72.0876C65.1771 72.1395 65.8451 72.1839 66.7114 71.9839C67.5263 71.7913 68.1136 71.4802 68.9579 71.0357C69.6259 70.6801 70.1618 70.3393 70.5216 70.0874L71.0575 69.7541L92.5456 53.2786L91.7161 69.3244L71.9384 83.9775L71.2117 84.4813C70.5876 84.8961 70.1765 85.1554 69.2221 85.6962C68.1356 86.3185 67.1959 86.5333 66.4691 86.6963C65.2284 86.9704 64.0905 87.0296 62.7985 86.9778C61.6165 86.9333 58.8928 86.8296 55.8095 85.7703C52.1241 84.5035 42.0224 77.5473 36.4723 74.0211C33.4183 72.0802 31.025 70.3912 29.5568 69.3244L28.9181 68.8948V56.4789H28.9254ZM119.525 36.7142L115.84 47.004H120.435L119.525 36.7142ZM76.4167 35.4104C77.5546 35.203 80.4911 34.6622 82.2751 32.2546C82.7082 31.6768 83.0753 30.8174 82.9211 29.7062C82.8037 28.8469 82.5394 28.0542 80.5572 26.743C79.2871 25.8985 77.3637 25.0021 74.9631 23.8094L73.6857 23.1427L70.8593 21.7352L58.6286 29.084L63.8703 31.8027L64.6778 32.2694C65.2945 32.6176 65.4413 32.6769 66.4251 33.1954C67.7465 33.8918 69.0092 34.5511 70.2573 34.9733C73.2305 35.9734 75.9101 35.5141 76.424 35.4178L76.4167 35.4104ZM69.6773 68.2873C68.6275 69.1096 66.5279 70.4801 63.9951 70.2578C62.5195 70.1245 61.1246 69.4726 59.9647 68.9318C58.6212 68.3021 57.6889 67.6798 57.4319 67.5094C48.057 61.2941 40.4587 57.8568 40.4587 57.8568C35.5694 55.6418 32.831 55.1158 30.7094 54.9232C28.4776 54.7232 26.6129 54.8639 25.3649 55.0195H24.4031C24.3591 54.175 24.4912 52.7008 23.8746 51.1821C23.4267 50.0783 22.7367 49.1079 21.0261 47.5596C18.8971 45.6409 16.937 44.4038 15.4393 43.5148C11.8714 41.4035 8.28152 39.6774 7.63548 39.3663C7.63548 39.3663 5.57256 38.381 2.15148 36.0697C0.844723 35.1882 0.169317 34.6548 0.0445143 33.8325C-0.234457 32.0472 1.02092 31.4027 1.35862 31.1952C2.2249 30.5285 3.14257 29.9359 4.09694 29.4099L57.9678 0L120.435 29.5507L69.6773 68.2947V68.2873ZM70.7124 38.9737C72.4597 39.2404 75.0952 39.6108 78.4135 38.9737C80.3516 38.5959 81.7245 38.0329 82.8183 37.581C85.1896 36.6031 86.6872 35.966 87.8912 34.3955C88.273 33.8992 89.0218 32.8991 89.2273 31.3879C89.4256 29.9137 88.9998 28.7506 88.7795 28.2468C88.3757 27.3208 88.2289 27.106 87.2452 26.0911C86.2688 25.091 84.6977 24.0835 84.5142 23.965C83.5231 23.365 82.9945 23.076 82.5981 22.8538C81.4749 22.2389 77.048 20.1202 77.048 20.1202L69.4791 16.1569L53.3208 26.4393L50.3328 24.528L45.7445 27.1727L48.7324 29.158L45.7445 30.9952L42.1178 29.0617L37.5882 31.8027L40.8625 33.6029L33.2935 38.4107L38.6087 41.2035L46.251 36.7142L58.1881 43.2555L63.2096 39.8775L51.1257 33.6325L54.2531 31.7953L58.6212 34.2918C58.746 34.3585 60.8016 35.4623 60.9191 35.5364C61.4917 35.8845 62.4754 36.3735 63.8116 36.9513C67.1592 38.4033 69.9196 38.8552 70.7124 38.9737Z" fill="url(#paint0_linear_24_559)"/>
<path d="M144.75 29.8767C143.781 29.484 143.039 28.9062 142.533 28.1432C142.026 27.3801 141.769 26.4541 141.769 25.3652V25.0096C141.769 23.9206 142.026 22.9946 142.533 22.2316C143.039 21.4685 143.781 20.8907 144.75 20.4981C145.719 20.1055 146.893 19.9128 148.266 19.9128C149.639 19.9128 150.806 20.1055 151.775 20.4981C152.744 20.8907 153.486 21.4685 153.992 22.2316C154.499 22.9946 154.756 23.9206 154.756 25.0096V25.3652C154.756 26.4541 154.499 27.3801 153.992 28.1432C153.486 28.9062 152.744 29.484 151.775 29.8767C150.806 30.2693 149.639 30.4619 148.266 30.4619C146.893 30.4619 145.726 30.2693 144.75 29.8767ZM151.423 27.5728C152.164 27.069 152.531 26.3282 152.531 25.3652V25.0096C152.531 24.0465 152.164 23.3057 151.423 22.802C150.681 22.2982 149.632 22.039 148.266 22.039C146.901 22.039 145.844 22.2908 145.109 22.802C144.368 23.3057 144.001 24.0465 144.001 25.0096V25.3652C144.001 26.3282 144.368 27.069 145.109 27.5728C145.851 28.0765 146.901 28.3358 148.266 28.3358C149.632 28.3358 150.681 28.0839 151.423 27.5728ZM147.025 18.5424H149.514V31.8398H147.025V18.5424Z" fill="#000205"/>
<path d="M164.057 31.825V21.5427L164.27 21.7723L159.462 31.825H156.599V18.9795H158.896V29.41L158.684 29.1804L163.507 18.9795H166.355V31.825H164.057Z" fill="#000205"/>
<path d="M169.16 18.9795H171.56V31.8324H169.16V18.9795ZM170.268 24.2985H177.69V26.632H170.268V24.2985ZM176.134 18.9795H178.535V31.8324H176.134V18.9795Z" fill="#000205"/>
<path d="M184.804 18.9795H186.331L191.198 31.8324H188.614L185.567 23.0539L182.521 31.8324H179.937L184.811 18.9795H184.804ZM182.271 27.4395H188.974V29.773H182.271V27.4395Z" fill="#000205"/>
<path d="M192.777 18.9795H195.177V31.8324H192.777V18.9795ZM193.885 24.2985H201.308V26.632H193.885V24.2985ZM199.751 18.9795H202.152V31.8324H199.751V18.9795Z" fill="#000205"/>
<path d="M206.806 31.4027C206.116 31.0323 205.595 30.4841 205.228 29.7656C204.868 29.047 204.685 28.1876 204.685 27.1727V23.6465C204.685 22.6316 204.868 21.7649 205.228 21.0537C205.588 20.3351 206.116 19.7943 206.806 19.4165C207.496 19.0387 208.326 18.8535 209.295 18.8535C210.095 18.8535 210.807 19.0313 211.439 19.3721C212.07 19.7203 212.591 20.224 213.002 20.8907C213.413 21.5574 213.7 22.3501 213.854 23.2909H211.365C211.27 22.8687 211.13 22.5057 210.932 22.2019C210.734 21.8982 210.499 21.6686 210.22 21.513C209.941 21.3574 209.633 21.2759 209.288 21.2759C208.84 21.2759 208.458 21.3722 208.142 21.5574C207.827 21.7427 207.584 22.0167 207.423 22.3723C207.254 22.7279 207.173 23.1576 207.173 23.6613V27.1876C207.173 27.6913 207.254 28.1136 207.423 28.4691C207.592 28.8247 207.827 29.0914 208.142 29.2766C208.458 29.4618 208.84 29.5581 209.288 29.5581C209.64 29.5581 209.956 29.4766 210.235 29.3211C210.514 29.1655 210.749 28.9359 210.947 28.6395C211.138 28.3358 211.277 27.9728 211.365 27.5431H213.854C213.692 28.484 213.406 29.2766 212.988 29.9433C212.577 30.6027 212.055 31.1138 211.431 31.462C210.8 31.8102 210.088 31.9806 209.288 31.9806C208.319 31.9806 207.489 31.7954 206.799 31.4175L206.806 31.4027Z" fill="#000205"/>
<path d="M217.649 31.3805C216.944 30.9879 216.401 30.4323 216.012 29.7211C215.63 29.0025 215.432 28.1728 215.432 27.232V23.5873C215.432 22.6464 215.623 21.8167 216.012 21.0982C216.401 20.3796 216.944 19.8314 217.649 19.4387C218.354 19.0461 219.169 18.8535 220.087 18.8535C221.004 18.8535 221.819 19.0461 222.524 19.4387C223.229 19.8314 223.772 20.387 224.161 21.0982C224.55 21.8167 224.741 22.6464 224.741 23.5873V27.232C224.741 28.1728 224.55 29.0025 224.161 29.7211C223.779 30.4397 223.229 30.9879 222.524 31.3805C221.819 31.7731 221.004 31.9657 220.087 31.9657C219.169 31.9657 218.354 31.7731 217.649 31.3805ZM221.224 29.2692C221.555 29.084 221.804 28.8173 221.981 28.4766C222.157 28.1358 222.245 27.7432 222.245 27.2913V23.528C222.245 23.0835 222.157 22.6835 221.981 22.3427C221.804 22.0019 221.547 21.7352 221.224 21.55C220.894 21.3648 220.52 21.2685 220.087 21.2685C219.653 21.2685 219.272 21.3648 218.949 21.55C218.618 21.7352 218.369 22.0019 218.192 22.3427C218.016 22.6835 217.928 23.0761 217.928 23.528V27.2913C217.928 27.7358 218.016 28.1358 218.192 28.4766C218.369 28.8173 218.626 29.084 218.949 29.2692C219.279 29.4544 219.653 29.5507 220.087 29.5507C220.52 29.5507 220.901 29.4544 221.224 29.2692Z" fill="#000205"/>
<path d="M227.105 18.9795H229.506V31.8324H227.105V18.9795ZM228.155 29.4989H232.222C232.773 29.4989 233.198 29.3656 233.499 29.0989C233.8 28.8322 233.947 28.4544 233.947 27.9728V27.9432C233.947 27.6173 233.881 27.3432 233.749 27.1135C233.617 26.8839 233.419 26.7061 233.154 26.5875C232.897 26.469 232.582 26.4098 232.222 26.4098H228.155V24.0762H232.222C232.721 24.0762 233.103 23.9503 233.375 23.6984C233.646 23.4465 233.778 23.091 233.778 22.6317C233.778 22.2168 233.646 21.8983 233.375 21.6686C233.103 21.439 232.721 21.3204 232.222 21.3204H228.155V18.9869H232.295C233.118 18.9869 233.822 19.1202 234.41 19.3943C234.997 19.6684 235.437 20.0685 235.738 20.587C236.039 21.1056 236.194 21.7353 236.194 22.4687C236.194 22.9724 236.098 23.4095 235.9 23.8021C235.702 24.1873 235.423 24.5059 235.048 24.7504C234.674 24.9948 234.226 25.1652 233.698 25.2541C234.255 25.3282 234.74 25.506 235.136 25.7727C235.54 26.0394 235.841 26.3875 236.047 26.8172C236.252 27.2469 236.355 27.7432 236.355 28.3136V28.3433C236.355 29.0766 236.201 29.7137 235.893 30.2323C235.584 30.7583 235.136 31.1583 234.556 31.4324C233.969 31.7065 233.264 31.8398 232.442 31.8398H228.147V29.5063L228.155 29.4989Z" fill="#000205"/>
<path d="M242.067 18.9795H243.594L248.461 31.8324H245.877L242.83 23.0539L239.783 31.8324H237.199L242.074 18.9795H242.067ZM239.534 27.4395H246.236V29.773H239.534V27.4395Z" fill="#000205"/>
<path d="M252.726 26.3874L255.12 26.7949L252.029 31.8323H249.298L252.734 26.3874H252.726ZM251.155 26.4319C250.597 26.0985 250.164 25.6392 249.856 25.0317C249.547 24.4317 249.393 23.7353 249.393 22.9427C249.393 22.15 249.547 21.4537 249.856 20.8536C250.164 20.2536 250.597 19.7869 251.155 19.4535C251.713 19.1201 252.359 18.9572 253.093 18.9572H257.278V21.2907H253.372C253.079 21.2907 252.822 21.3574 252.601 21.4907C252.381 21.624 252.205 21.8167 252.088 22.0685C251.97 22.3204 251.911 22.6093 251.911 22.9279C251.911 23.2464 251.97 23.5353 252.095 23.7872C252.22 24.0391 252.389 24.2317 252.609 24.365C252.829 24.4984 253.086 24.5724 253.372 24.5724H257.278V26.906H253.093C252.367 26.906 251.721 26.743 251.163 26.4096L251.155 26.4319ZM256.001 18.972H258.401V31.8323H256.001V18.972Z" fill="#000205"/>
<path d="M142.562 37.0847H144.963V49.9377H142.562V37.0847ZM143.428 37.0847H150.05V39.4182H143.428V37.0847Z" fill="#000205"/>
<path d="M151.805 37.0847H154.205V49.9377H151.805V37.0847ZM152.899 42.6185H156.973C157.259 42.6185 157.509 42.5518 157.729 42.4185C157.949 42.2852 158.118 42.1 158.243 41.8555C158.368 41.611 158.427 41.3369 158.427 41.0258C158.427 40.7147 158.368 40.4257 158.25 40.1813C158.133 39.9368 157.964 39.7442 157.744 39.6183C157.524 39.4849 157.267 39.4182 156.98 39.4182H152.906V37.0847H156.922C157.714 37.0847 158.412 37.2477 159.021 37.5736C159.623 37.8996 160.093 38.3589 160.431 38.9589C160.761 39.5516 160.93 40.2405 160.93 41.0258C160.93 41.811 160.761 42.5 160.431 43.0926C160.1 43.6853 159.631 44.1446 159.021 44.4705C158.419 44.7965 157.714 44.9595 156.922 44.9595H152.906V42.6259L152.899 42.6185Z" fill="#000205"/>
<path d="M165.915 37.0847H167.442L172.309 49.9377H169.725L166.678 41.1591L163.632 49.9377H161.047L165.922 37.0847H165.915ZM163.382 45.5447H170.085V47.8782H163.382V45.5447Z" fill="#000205"/>
<path d="M181.904 37.0847H185.069V49.9376H182.888V39.959L182.976 40.522L180.539 48.5005H178.417L175.98 40.6924L176.068 39.9516V49.9302H173.888V37.0773H177.052L179.474 45.7373L181.904 37.0773V37.0847Z" fill="#000205"/>
<path d="M189.818 49.4857C189.113 49.0931 188.57 48.5375 188.181 47.8263C187.799 47.1078 187.601 46.2781 187.601 45.3372V41.6925C187.601 40.7517 187.792 39.922 188.181 39.2034C188.57 38.4848 189.113 37.9366 189.818 37.544C190.523 37.1513 191.338 36.9587 192.256 36.9587C193.173 36.9587 193.988 37.1513 194.693 37.544C195.398 37.9366 195.941 38.4922 196.33 39.2034C196.719 39.922 196.91 40.7517 196.91 41.6925V45.3372C196.91 46.2781 196.719 47.1078 196.33 47.8263C195.948 48.5449 195.398 49.0931 194.693 49.4857C193.988 49.8784 193.173 50.071 192.256 50.071C191.338 50.071 190.523 49.8784 189.818 49.4857ZM193.393 47.367C193.724 47.1818 193.973 46.9151 194.15 46.5744C194.326 46.2336 194.414 45.841 194.414 45.3891V41.6258C194.414 41.1813 194.326 40.7813 194.15 40.4405C193.973 40.0997 193.716 39.8331 193.393 39.6479C193.063 39.4627 192.689 39.3664 192.256 39.3664C191.822 39.3664 191.441 39.4627 191.118 39.6479C190.787 39.8331 190.538 40.0997 190.361 40.4405C190.185 40.7813 190.097 41.1739 190.097 41.6258V45.3891C190.097 45.8336 190.185 46.2336 190.361 46.5744C190.538 46.9151 190.795 47.1818 191.118 47.367C191.448 47.5522 191.822 47.6485 192.256 47.6485C192.689 47.6485 193.07 47.5522 193.393 47.367Z" fill="#000205"/>
<path d="M197.695 37.0847H207.034V39.4182H197.695V37.0847ZM201.168 38.1367H203.568V49.9377H201.168V38.1367Z" fill="#000205"/>
<path d="M208.436 37.0847H210.837V49.9377H208.436V37.0847ZM209.552 42.3963H216.974V44.7298H209.552V42.3963ZM215.41 37.0847H217.811V49.9377H215.41V37.0847Z" fill="#000205"/>
<path d="M222.561 49.4857C221.856 49.0931 221.313 48.5375 220.924 47.8263C220.542 47.1078 220.344 46.2781 220.344 45.3372V41.6925C220.344 40.7517 220.535 39.922 220.924 39.2034C221.313 38.4848 221.856 37.9366 222.561 37.544C223.266 37.1513 224.08 36.9587 224.998 36.9587C225.916 36.9587 226.731 37.1513 227.435 37.544C228.14 37.9366 228.684 38.4922 229.073 39.2034C229.462 39.922 229.653 40.7517 229.653 41.6925V45.3372C229.653 46.2781 229.462 47.1078 229.073 47.8263C228.691 48.5449 228.14 49.0931 227.435 49.4857C226.731 49.8784 225.916 50.071 224.998 50.071C224.08 50.071 223.266 49.8784 222.561 49.4857ZM226.143 47.367C226.474 47.1818 226.723 46.9151 226.9 46.5744C227.076 46.2336 227.164 45.841 227.164 45.3891V41.6258C227.164 41.1813 227.076 40.7813 226.9 40.4405C226.723 40.0997 226.466 39.8331 226.143 39.6479C225.813 39.4627 225.439 39.3664 225.005 39.3664C224.572 39.3664 224.191 39.4627 223.868 39.6479C223.537 39.8331 223.288 40.0997 223.111 40.4405C222.935 40.7813 222.847 41.1739 222.847 41.6258V45.3891C222.847 45.8336 222.935 46.2336 223.111 46.5744C223.288 46.9151 223.545 47.1818 223.868 47.367C224.198 47.5522 224.572 47.6485 225.005 47.6485C225.439 47.6485 225.82 47.5522 226.143 47.367Z" fill="#000205"/>
<path d="M233.697 49.508C233.007 49.1376 232.486 48.5894 232.119 47.8708C231.759 47.1522 231.576 46.2929 231.576 45.278V41.7517C231.576 40.7368 231.759 39.8701 232.119 39.1589C232.479 38.4403 233.007 37.8996 233.697 37.5218C234.387 37.1439 235.217 36.9587 236.186 36.9587C236.986 36.9587 237.698 37.1365 238.33 37.4773C238.961 37.8255 239.482 38.3292 239.893 38.996C240.305 39.6627 240.591 40.4553 240.745 41.3962H238.256C238.161 40.9739 238.021 40.6109 237.823 40.3072C237.625 40.0034 237.39 39.7738 237.111 39.6182C236.832 39.4627 236.524 39.3812 236.179 39.3812C235.731 39.3812 235.349 39.4775 235.033 39.6627C234.718 39.8479 234.476 40.122 234.314 40.4776C234.145 40.8331 234.064 41.2628 234.064 41.7666V45.2928C234.064 45.7965 234.145 46.2188 234.314 46.5744C234.483 46.93 234.718 47.1966 235.033 47.3818C235.349 47.567 235.731 47.6634 236.179 47.6634C236.531 47.6634 236.847 47.5819 237.126 47.4263C237.405 47.2707 237.64 47.0411 237.838 46.7448C238.029 46.441 238.168 46.078 238.256 45.6484H240.745C240.584 46.5892 240.297 47.3819 239.879 48.0486C239.468 48.7079 238.946 49.219 238.322 49.5672C237.691 49.9154 236.979 50.0858 236.179 50.0858C235.21 50.0858 234.38 49.9006 233.69 49.5228L233.697 49.508Z" fill="#000205"/>
<path d="M241.193 37.0847H250.531V39.4182H241.193V37.0847ZM244.658 38.1367H247.059V49.9377H244.658V38.1367Z" fill="#000205"/>
<path d="M251.934 37.0847H254.334V49.9377H251.934V37.0847ZM253.027 47.6041H257.058C257.344 47.6041 257.594 47.5375 257.814 47.4041C258.034 47.2708 258.203 47.0782 258.328 46.8263C258.453 46.5818 258.511 46.2929 258.511 45.967C258.511 45.641 258.453 45.3447 258.335 45.0928C258.218 44.8409 258.049 44.6483 257.829 44.515C257.608 44.3816 257.352 44.3076 257.065 44.3076H253.035V41.974H257.006C257.799 41.974 258.497 42.137 259.106 42.4704C259.708 42.8037 260.178 43.263 260.516 43.8705C260.846 44.4705 261.015 45.1669 261.015 45.967C261.015 46.767 260.846 47.4486 260.516 48.056C260.185 48.6561 259.715 49.1228 259.106 49.4487C258.504 49.7747 257.799 49.9377 257.006 49.9377H253.035V47.6041H253.027Z" fill="#000205"/>
<path d="M142.173 58.4865H143.318V66.7464H142.173V58.4865ZM142.738 58.4865H146.769V59.5903H142.738V58.4865Z" fill="#000205"/>
<path d="M151.063 66.4576C150.63 66.2057 150.292 65.8501 150.05 65.3908C149.815 64.9315 149.69 64.3981 149.69 63.7907V61.4497C149.69 60.8423 149.808 60.3089 150.05 59.8496C150.292 59.3903 150.623 59.0347 151.063 58.7828C151.496 58.531 152.003 58.405 152.576 58.405C153.148 58.405 153.647 58.531 154.088 58.7828C154.521 59.0347 154.859 59.3903 155.101 59.8496C155.336 60.3089 155.461 60.8423 155.461 61.4497V63.7907C155.461 64.3981 155.343 64.9315 155.101 65.3908C154.859 65.8501 154.528 66.2057 154.088 66.4576C153.647 66.7094 153.148 66.8354 152.576 66.8354C152.003 66.8354 151.504 66.7094 151.063 66.4576ZM153.464 65.4575C153.721 65.3019 153.919 65.0871 154.059 64.8056C154.198 64.5241 154.271 64.1981 154.271 63.8277V61.4053C154.271 61.0349 154.198 60.7089 154.059 60.4274C153.919 60.1459 153.721 59.9311 153.464 59.7755C153.207 59.62 152.906 59.5459 152.568 59.5459C152.231 59.5459 151.93 59.62 151.673 59.7755C151.416 59.9311 151.217 60.1459 151.078 60.4274C150.938 60.7089 150.865 61.0349 150.865 61.4053V63.8277C150.865 64.1981 150.938 64.5241 151.078 64.8056C151.217 65.0871 151.416 65.3093 151.673 65.4575C151.93 65.6131 152.231 65.6871 152.568 65.6871C152.906 65.6871 153.207 65.6131 153.464 65.4575Z" fill="#000205"/>
<path d="M159.168 58.4865H160.313V66.7464H159.168V58.4865ZM159.755 62.4423H162.376C162.626 62.4423 162.839 62.3831 163.03 62.2646C163.22 62.146 163.36 61.983 163.47 61.7608C163.573 61.546 163.624 61.2941 163.624 61.02C163.624 60.7459 163.573 60.4866 163.47 60.2718C163.367 60.057 163.22 59.8866 163.03 59.768C162.839 59.6495 162.626 59.5903 162.376 59.5903H159.755V58.4865H162.332C162.817 58.4865 163.25 58.5902 163.624 58.805C163.999 59.0124 164.285 59.3087 164.49 59.694C164.696 60.0792 164.799 60.5237 164.799 61.0274C164.799 61.5312 164.696 61.9756 164.49 62.3534C164.285 62.7313 163.999 63.0276 163.624 63.235C163.25 63.4424 162.824 63.5461 162.332 63.5461H159.755V62.4423Z" fill="#000205"/>
<path d="M169.409 66.4576C168.976 66.2057 168.639 65.8501 168.396 65.3908C168.161 64.9315 168.037 64.3981 168.037 63.7907V61.4497C168.037 60.8423 168.154 60.3089 168.396 59.8496C168.639 59.3903 168.969 59.0347 169.409 58.7828C169.843 58.531 170.349 58.405 170.922 58.405C171.494 58.405 171.994 58.531 172.434 58.7828C172.867 59.0347 173.205 59.3903 173.447 59.8496C173.682 60.3089 173.807 60.8423 173.807 61.4497V63.7907C173.807 64.3981 173.689 64.9315 173.447 65.3908C173.205 65.8501 172.875 66.2057 172.434 66.4576C171.994 66.7094 171.494 66.8354 170.922 66.8354C170.349 66.8354 169.85 66.7094 169.409 66.4576ZM171.81 65.4575C172.067 65.3019 172.265 65.0871 172.405 64.8056C172.544 64.5241 172.618 64.1981 172.618 63.8277V61.4053C172.618 61.0349 172.544 60.7089 172.405 60.4274C172.265 60.1459 172.067 59.9311 171.81 59.7755C171.553 59.62 171.252 59.5459 170.914 59.5459C170.577 59.5459 170.276 59.62 170.019 59.7755C169.762 59.9311 169.564 60.1459 169.424 60.4274C169.285 60.7089 169.211 61.0349 169.211 61.4053V63.8277C169.211 64.1981 169.285 64.5241 169.424 64.8056C169.564 65.0871 169.762 65.3093 170.019 65.4575C170.276 65.6131 170.577 65.6871 170.914 65.6871C171.252 65.6871 171.553 65.6131 171.81 65.4575Z" fill="#000205"/>
<path d="M176.721 65.6426H183.82V66.7464H176.721V65.6426ZM176.721 65.6426H177.866V68.4577H176.721V65.6426ZM176.729 65.6426H176.78C177.257 65.6426 177.617 65.45 177.881 65.0648C178.138 64.6796 178.27 64.1314 178.27 63.435V58.4865H179.415V63.5387C179.415 64.1462 179.313 64.6648 179.114 65.087C178.916 65.5167 178.63 65.8426 178.248 66.0649C177.874 66.2871 177.419 66.4056 176.883 66.4056H176.721V65.6426H176.729ZM178.99 58.4865H182.704V59.5903H178.99V58.4865ZM182.088 58.4865H183.24V66.7464H182.088V58.4865ZM183.189 65.6426H184.334V68.4577H183.189V65.6426Z" fill="#000205"/>
<path d="M190.34 58.4865H191.316L194.333 66.7464H193.093L190.824 60.0792L188.556 66.7464H187.315L190.332 58.4865H190.34ZM188.717 63.8351H193.027V64.9389H188.717V63.8351Z" fill="#000205"/>
<path d="M208.502 58.4865H209.581V66.7464H208.458V60.5607L208.517 60.9237L206.498 65.5982H205.698L203.679 61.0348L203.737 60.5607V66.7464H202.614V58.4865H203.686L206.094 63.9388L208.502 58.4865Z" fill="#000205"/>
<path d="M214.779 66.4576C214.346 66.2057 214.008 65.8501 213.766 65.3908C213.531 64.9315 213.406 64.3981 213.406 63.7907V61.4497C213.406 60.8423 213.524 60.3089 213.766 59.8496C214.008 59.3903 214.339 59.0347 214.779 58.7828C215.212 58.531 215.719 58.405 216.291 58.405C216.864 58.405 217.363 58.531 217.804 58.7828C218.237 59.0347 218.575 59.3903 218.817 59.8496C219.052 60.3089 219.177 60.8423 219.177 61.4497V63.7907C219.177 64.3981 219.059 64.9315 218.817 65.3908C218.575 65.8501 218.244 66.2057 217.804 66.4576C217.363 66.7094 216.864 66.8354 216.291 66.8354C215.719 66.8354 215.22 66.7094 214.779 66.4576ZM217.18 65.4575C217.437 65.3019 217.635 65.0871 217.774 64.8056C217.914 64.5241 217.987 64.1981 217.987 63.8277V61.4053C217.987 61.0349 217.914 60.7089 217.774 60.4274C217.635 60.1459 217.437 59.9311 217.18 59.7755C216.923 59.62 216.622 59.5459 216.284 59.5459C215.946 59.5459 215.645 59.62 215.388 59.7755C215.131 59.9311 214.933 60.1459 214.794 60.4274C214.654 60.7089 214.581 61.0349 214.581 61.4053V63.8277C214.581 64.1981 214.654 64.5241 214.794 64.8056C214.933 65.0871 215.131 65.3093 215.388 65.4575C215.645 65.6131 215.946 65.6871 216.284 65.6871C216.622 65.6871 216.923 65.6131 217.18 65.4575Z" fill="#000205"/>
<path d="M223.956 66.4501C223.523 66.1982 223.192 65.8352 222.957 65.3685C222.722 64.9018 222.605 64.361 222.605 63.7462V61.4793C222.605 60.8644 222.722 60.3236 222.957 59.8569C223.192 59.3902 223.53 59.0272 223.956 58.7754C224.389 58.5161 224.881 58.3901 225.453 58.3901C225.923 58.3901 226.356 58.4939 226.745 58.6939C227.142 58.8939 227.472 59.1828 227.737 59.5532C228.001 59.9236 228.177 60.3533 228.273 60.8422H227.098C227.024 60.5829 226.907 60.3533 226.738 60.1532C226.569 59.9532 226.371 59.7977 226.151 59.6865C225.923 59.5754 225.696 59.5236 225.453 59.5236C225.116 59.5236 224.829 59.6051 224.572 59.768C224.316 59.931 224.125 60.1607 223.985 60.4496C223.846 60.7459 223.78 61.0867 223.78 61.4793V63.7462C223.78 64.1314 223.846 64.4721 223.985 64.7685C224.125 65.0648 224.316 65.2944 224.572 65.45C224.822 65.613 225.116 65.6945 225.453 65.6945C225.696 65.6945 225.931 65.6426 226.151 65.5389C226.371 65.4352 226.569 65.287 226.738 65.087C226.907 64.887 227.024 64.6499 227.098 64.3684H228.273C228.177 64.8574 228.001 65.287 227.729 65.6574C227.465 66.0278 227.135 66.3167 226.738 66.5168C226.342 66.7168 225.916 66.8205 225.446 66.8205C224.881 66.8205 224.382 66.6945 223.948 66.4427L223.956 66.4501Z" fill="#000205"/>
<path d="M231.767 58.4865H232.912V66.7464H231.767V58.4865ZM232.325 62.0942H234.887V63.198H232.325V62.0942ZM233.874 63.1091L234.879 62.509L238.036 66.739H236.443L233.874 63.1017V63.1091ZM233.881 62.2127L236.26 58.4865H237.698L234.461 63.2276L233.881 62.2127Z" fill="#000205"/>
<path d="M241.252 58.4865H242.397V66.7464H241.252V58.4865ZM241.927 65.6723H244.144C244.724 65.6723 245.15 65.5611 245.415 65.3389C245.679 65.1166 245.811 64.7981 245.811 64.3981V64.3833C245.811 64.1017 245.76 63.8647 245.671 63.6647C245.576 63.4647 245.422 63.3091 245.216 63.198C245.011 63.0868 244.746 63.035 244.423 63.035H241.92V61.9905H244.423C244.849 61.9905 245.165 61.8941 245.385 61.6867C245.605 61.4793 245.708 61.1904 245.708 60.7978C245.708 60.4051 245.591 60.0792 245.348 59.8718C245.106 59.6643 244.746 59.568 244.269 59.568H241.927V58.4939H244.482C245.011 58.4939 245.451 58.5828 245.811 58.768C246.171 58.9532 246.435 59.205 246.611 59.5384C246.787 59.8718 246.875 60.2718 246.875 60.7311C246.875 61.0126 246.824 61.2793 246.714 61.5312C246.604 61.783 246.442 61.9905 246.215 62.1682C245.994 62.346 245.716 62.4646 245.385 62.5238C245.716 62.5757 246.002 62.6942 246.244 62.8794C246.486 63.0646 246.67 63.3017 246.795 63.5832C246.919 63.8647 246.986 64.1684 246.986 64.4944V64.5092C246.986 64.9537 246.89 65.3537 246.692 65.6945C246.494 66.0352 246.215 66.2945 245.855 66.4871C245.488 66.6723 245.069 66.7686 244.585 66.7686H241.942V65.6945L241.927 65.6723Z" fill="#000205"/>
<path d="M250.664 58.4865H251.809V66.7464H250.664V58.4865ZM251.258 65.6426H253.622C253.886 65.6426 254.107 65.5908 254.298 65.4871C254.481 65.3833 254.628 65.2278 254.723 65.0203C254.819 64.8129 254.87 64.5684 254.87 64.2795C254.87 63.9906 254.819 63.7387 254.723 63.5387C254.628 63.3387 254.481 63.1757 254.298 63.072C254.114 62.9609 253.886 62.909 253.622 62.909H251.258V61.8053H253.585C254.107 61.8053 254.547 61.9016 254.914 62.0942C255.281 62.2868 255.56 62.5683 255.758 62.9387C255.949 63.3091 256.052 63.7536 256.052 64.2795C256.052 64.8055 255.957 65.2426 255.758 65.613C255.568 65.9834 255.281 66.2649 254.914 66.4575C254.547 66.6501 254.099 66.7464 253.585 66.7464H251.258V65.6426ZM258.277 66.7464H257.131V58.4865H258.277V66.7464Z" fill="#000205"/>
</g>
<defs>
<linearGradient id="paint0_linear_24_559" x1="0.000466192" y1="43.5" x2="120.435" y2="43.5" gradientUnits="userSpaceOnUse">
<stop stop-color="#41D7DE"/>
<stop offset="0.21" stop-color="#3BD0D7"/>
<stop offset="0.5" stop-color="#2ABEC6"/>
<stop offset="0.84" stop-color="#0FA1AA"/>
<stop offset="1" stop-color="#00919B"/>
</linearGradient>
<clipPath id="clip0_24_559">
<rect width="261" height="87" fill="white"/>
</clipPath>
</defs>
</svg>
